<?xml version="1.0" encoding="utf-8"?>
<!-- Generator: Adobe Illustrator 22.0.1, SVG Export Plug-In . SVG Version: 6.00 Build 0)  -->
<svg version="1.1" id="Capa_1" xmlns="http://www.w3.org/2000/svg" xmlns:xlink="http://www.w3.org/1999/xlink" x="0px" y="0px"
	 viewBox="0 0 200 200" style="enable-background:new 0 0 200 200;" xml:space="preserve">
<style type="text/css">
	.st0{fill:#1F9991;}
	.st1{fill:#C1D064;}
	.st2{fill:#D895B0;}
	.st3{fill:#2E9D9C;}
	.st4{fill:#D09ABB;}
	.st5{fill:#E6CADE;}
	.st6{fill:#E0B0CF;}
	.st7{fill:#3AA0A8;}
	.st8{fill:#E8C7DD;}
	.st9{opacity:0.2;}
	.st10{opacity:0.65;fill:#42A2A4;}
	.st11{opacity:0.2;fill:#148281;}
	.st12{fill:#FFFFFF;}
	.st13{opacity:0.2;fill:#FFFFFF;}
	.st14{fill:#083063;}
	.st15{fill:#D9969C;}
</style>
<g>
	<g>
		<g>
			<g>
				<g>
					<path class="st0" d="M86.3,152.5c-0.9,2.2-1.5,4.8-1.1,7.2c0.6,3.3,4.7,5.2,7.4,6.3c2.1,0.9,3.3-2.4,1.3-3.2
						c-1.7-0.7-5-2-5.3-4c-0.3-1.6,0.4-3.5,1-5C90.4,151.7,87.2,150.4,86.3,152.5L86.3,152.5z"/>
				</g>
			</g>
			<path class="st1" d="M98.2,175.8c0.2-0.3,0.4-0.7,0.6-1c0.9-1.8,1.7-3.9,2.4-6.2c0.2-0.9,0.4-1.6,0.5-2.2l0-0.1
				c0.1-0.4,0.2-0.9-0.3-1.2c-0.4-0.4-1-0.5-1.4-0.6c-0.5-0.1-0.9-0.2-1.4-0.3l-0.2,0c-0.5-0.1-0.9-0.3-1.3-0.6l-0.1,0
				c-0.3-0.2-0.7-0.4-1-0.6c0,0,0,0-0.1,0c0-0.1,0-0.2-0.1-0.3c-0.1-0.2-0.2-0.3-0.4-0.3c-0.4-0.1-1.1-0.1-1.4,0.3
				c-0.1,0.1-0.1,0.2-0.2,0.4c0,0,0,0.1,0,0.1c-0.1,0.2-0.2,0.4-0.3,0.6l0,0.1c-0.2,0.3-0.4,0.6-0.6,0.9c-0.2,0.3-0.4,0.5-0.7,0.7
				c-0.1,0.1-0.3,0.3-0.4,0.4c-0.4,0.4-0.5,0.8-0.3,1.2c0.1,0.2,0.2,0.4,0.5,0.5l-0.1,0l0.1,0c0,0,0.1,0.1,0.1,0.1
				c-0.1,0.1-0.1,0.3-0.2,0.5c-0.1,0.3-0.2,0.7-0.2,1l0,0.1c0,0.3-0.1,0.7,0,1c0,0,0,0,0,0.1c-0.9,0.4-1.7,1.1-2.2,2.2
				c-0.4,0.9-0.7,1.8-0.7,2.8c0,1.3,0.5,2.5,1.3,3.4c0.9,0.9,2.1,1.5,3.2,2c0.1,0,0.2,0.1,0.3,0.1c0.2,0.1,0.4-0.1,0.6-0.3
				c0,0,0.1,0,0.1-0.1c0.5-0.3,0.9-0.7,1.4-1.2C96.7,178.2,97.5,177.1,98.2,175.8z"/>
			<path class="st2" d="M98.2,175.8c0.2-0.3,0.4-0.7,0.6-1c0.9-1.8,1.7-3.9,2.4-6.2c0.2-0.9,0.4-1.6,0.5-2.2l0-0.1
				c0.1-0.4,0.2-0.9-0.3-1.2c-0.4-0.4-1-0.5-1.4-0.6c-0.5-0.1-0.9-0.2-1.4-0.3l-0.2,0c-0.5-0.1-0.9-0.3-1.3-0.6l-0.1,0
				c-0.3-0.2-0.7-0.4-1-0.6c0,0,0,0-0.1,0c0-0.1,0-0.2-0.1-0.3c-0.1-0.2-0.2-0.3-0.4-0.3c-0.4-0.1-1.1-0.1-1.4,0.3
				c-0.1,0.1-0.1,0.2-0.2,0.4c0,0,0,0.1,0,0.1c-0.1,0.2-0.2,0.4-0.3,0.6l0,0.1c-0.2,0.3-0.4,0.6-0.6,0.9c-0.2,0.3-0.4,0.5-0.7,0.7
				c-0.1,0.1-0.3,0.3-0.4,0.4c-0.4,0.4-0.5,0.8-0.3,1.2c0.1,0.2,0.2,0.4,0.5,0.5l-0.1,0l0.1,0c0,0,0.1,0.1,0.1,0.1
				c-0.1,0.1-0.1,0.3-0.2,0.5c-0.1,0.3-0.2,0.7-0.2,1l0,0.1c0,0.3-0.1,0.7,0,1c0,0,0,0,0,0.1c-0.9,0.4-1.7,1.1-2.2,2.2
				c-0.4,0.9-0.7,1.8-0.7,2.8c0,1.3,0.5,2.5,1.3,3.4c0.9,0.9,2.1,1.5,3.2,2c0.1,0,0.2,0.1,0.3,0.1c0.2,0.1,0.4-0.1,0.6-0.3
				c0,0,0.1,0,0.1-0.1c0.5-0.3,0.9-0.7,1.4-1.2C96.7,178.2,97.5,177.1,98.2,175.8z M95.8,163.1L95.8,163.1L95.8,163.1L95.8,163.1z
				 M92.6,167.1L92.6,167.1C92.6,167.1,92.6,167.1,92.6,167.1c-0.3-0.1-0.4-0.3-0.5-0.4c-0.1-0.1-0.1-0.2,0-0.4
				c0.1-0.2,0.2-0.3,0.4-0.5l0,0c0.7-0.7,1.3-1.4,1.7-2.1c0.1-0.1,0.1-0.3,0.2-0.4c0-0.1,0.1-0.1,0.1-0.2c0.1-0.2,0.1-0.3,0.3-0.4
				c0.2-0.1,0.5-0.1,0.6,0c0.1,0,0.2,0.1,0.2,0.1c0,0.1,0,0.1,0,0.3c-0.1,0.4-0.2,0.7-0.4,1.2c-0.4,0.8-0.9,1.6-1.6,2.1l0,0.1
				c0,0.1,0,0.2,0.1,0.3c0.1,0.1,0.2,0.1,0.2,0c0,0,0.1,0,0.1,0c0.6-0.5,1.2-1.2,1.5-2c0.2-0.3,0.3-0.6,0.4-0.9l0-0.1
				c0-0.1,0.1-0.1,0.1-0.2c0.7,0.5,1.6,1.1,2.5,1.3c0.3,0,0.6,0.1,0.9,0.2c-0.1,0-0.1,0.1-0.1,0.2c-0.1,2-0.6,4-1.5,6.1
				c-0.7-0.7-1.5-1.1-2.5-1.2c0,0,0.1,0,0.1-0.1c0.2-0.1,0.4-0.4,0.5-0.6l0-0.1c0.1-0.1,0.1-0.3,0.2-0.5c0-0.1,0-0.3,0-0.4
				c0-0.3-0.2-0.7-0.4-1c-0.5-0.5-1.1-0.6-1.8-0.5C93.4,166.8,93,166.9,92.6,167.1z M92.5,167.7c0-0.1,0.1-0.2,0.2-0.3
				c0.6-0.3,1.8-0.8,2.5-0.2c0.2,0.1,0.3,0.4,0.4,0.7c0.1,0.3,0.1,0.6-0.1,1c-0.1,0.2-0.2,0.4-0.4,0.5c-0.2,0.2-0.7,0.3-1.1,0.3
				c-0.2,0-0.3,0-0.5,0c-0.3,0-0.6,0.1-0.8,0.1c0,0-0.1,0-0.1,0c0,0,0,0,0,0c-0.1,0-0.3,0-0.4,0c0,0,0-0.1,0-0.1
				C92.1,169.3,92.2,168.4,92.5,167.7z M92.4,170.1L92.4,170.1C92.4,170.1,92.4,170.1,92.4,170.1C92.4,170.1,92.4,170.1,92.4,170.1z
				 M92,178.9c0,0-0.1,0.1-0.1,0.1l0,0c-0.3-0.2-0.6-0.4-0.8-0.6c-1.4-1.1-1.9-3-1.4-4.8c0.1-0.4,0.2-0.8,0.4-1.1
				c0.6-1.2,1.5-2,2.5-2.2c0,0,0,0,0,0c1.6-0.4,3.7-0.2,4.9,1.1c-0.1,0.2-0.2,0.4-0.3,0.6c-0.4,0.7-0.8,1.5-1.3,2.3
				C94.7,176,93.4,177.6,92,178.9z M95,179.2c-0.2,0.2-0.5,0.4-0.7,0.6c0,0,0,0-0.1,0.1c-0.2,0.2-0.3,0.3-0.4,0.3
				c-0.6-0.3-1.1-0.5-1.6-0.8c1-0.9,2-2,3.1-3.5c0.9-1.2,1.7-2.4,2.3-3.6c0.1-0.2,0.2-0.3,0.2-0.5c0.1,0,0.1-0.1,0.2-0.1
				c0-0.1,0-0.1,0-0.2c0.6-1.3,1.1-2.7,1.4-4c0.2-0.8,0.3-1.6,0.3-2.4c0,0,0-0.1,0-0.1c0.2,0,0.4,0.1,0.6,0.1
				c0.3,0.1,1.1,0.3,1.1,0.7c0,0.4-0.1,0.9-0.2,1.4l0,0.1c0,0.1,0,0.1-0.1,0.2c-0.2,1-0.5,2-0.9,3.1c-0.5,1.6-1.1,2.9-1.7,4.2
				c-0.6,1.2-1.3,2.2-2,3.2C95.9,178.3,95.5,178.8,95,179.2z"/>
		</g>
		<g>
			<g>
				<g>
					<path class="st3" d="M164.7,104.3c-0.5,0-0.9-0.3-1.1-0.8l-0.2-0.5c-0.1-0.3-0.1-0.7,0.1-1c0.2-0.3,0.5-0.5,0.8-0.6
						c0.2,0,22.1-3.5,21.8-22c0-0.3,0.1-0.7,0.4-0.9c0.3-0.2,0.6-0.3,0.9-0.3l0.6,0.1c0.6,0.1,1,0.6,1,1.1
						c0.4,21-23.9,24.7-24.1,24.8C164.8,104.3,164.8,104.3,164.7,104.3z"/>
				</g>
			</g>
			<path class="st4" d="M195.6,69.2c-0.4-2.2-2.2-3.2-4.2-3.5c-0.1-0.2-0.3-0.3-0.5-0.4c-1.5-0.8-3.1-0.8-4,0.7
				c-0.1-0.1-0.2-0.1-0.3-0.1c-0.9-0.4-2.3,0-3,0.6c-0.6,0.4-0.8,1-1.1,1.6c-1.6,4-0.5,11.7,5.1,11.4c2.7,0.7,5.7-0.2,6.2-3.3
				c0,0,0,0,0-0.1c1-0.9,1.2-2.3,0.9-3.6C195.6,72,195.8,70.3,195.6,69.2z"/>
			<g>
				<g>
					<g id="XMLID_24_">
						<g>
							<path class="st1" d="M195.6,69.2c0.2,1.1,0,2.7-0.9,3.4c0,0,0,0,0,0c-0.1-0.2-0.4-0.1-0.4,0.1c0,0,0,0.1,0,0.1
								c-0.1,0-0.2,0.1-0.3,0.1c0-0.1,0-0.3,0.1-0.4c1.4-0.4,1.4-2.6,1.1-3.7c-0.4-1.6-1.9-2.3-3.4-2.6c-0.1-0.2-0.2-0.3-0.3-0.5
								C193.4,66.1,195.2,67.1,195.6,69.2z"/>
							<path class="st1" d="M194.7,72.7c0.3,1.3,0.1,2.7-0.9,3.6c0-0.2-0.3-0.2-0.4,0c0,0.1,0,0.2-0.1,0.3c-0.1,0.1-0.2,0.1-0.3,0.2
								c-0.2,0.1-0.3-0.3-0.1-0.4c1.4-0.6,1.7-2.2,1.4-3.5C194.5,72.8,194.6,72.7,194.7,72.7z"/>
							<path class="st1" d="M194.7,72.6C194.7,72.6,194.7,72.7,194.7,72.6c-0.1,0.1-0.2,0.2-0.4,0.2c0,0,0-0.1,0-0.1
								C194.3,72.5,194.6,72.4,194.7,72.6z"/>
							<path class="st1" d="M193.9,71.2c0.2,0.4,0.2,0.9,0.2,1.3c-0.1,0-0.2,0-0.3,0c0,0-0.1,0-0.1,0c0-0.3,0-0.6,0-0.9
								c-0.1-0.8-1-0.9-1.7-0.7c-0.7,0.2-1.5,0.3-2.3,0.3c-0.7,0.1-2.2-0.3-2.7,0.2c-0.1,0.1-0.2,0.2-0.2,0.2l0,0
								c0.1-0.1,0.1-0.3-0.1-0.3c0,0-0.1,0-0.1,0c0.3-0.4,0.7-0.5,1.2-0.4c0.7,0,1.5,0,2.2,0c0,0,0,0,0,0c0,0.3,0.4,0.2,0.4,0
								c0,0,0,0,0-0.1c0.6-0.1,1.1-0.2,1.6-0.3c0.1,0,0.2-0.1,0.3-0.1c0,0,0,0.1,0,0.1c-0.1,0.2,0.3,0.3,0.4,0.1
								c0-0.1,0.1-0.2,0.1-0.2C193.2,70.4,193.6,70.6,193.9,71.2z"/>
							<path class="st1" d="M194.1,72.5c0,0.1,0,0.3-0.1,0.4c-0.1,0-0.2,0-0.2,0c-0.1,0-0.1,0-0.2-0.1c0-0.1,0-0.2,0-0.3
								c0,0,0.1,0,0.1,0C193.9,72.6,194,72.5,194.1,72.5z"/>
							<path class="st1" d="M193.8,73c0.1,0,0.2,0,0.2,0c-0.1,0.5-0.3,0.9-0.5,1.3c-0.4,0.7-1.2,1.3-2,1.6c0-0.1,0-0.2,0-0.2
								c0-0.1-0.1-0.1-0.1-0.1c1-0.5,1.9-1.4,2.2-2.3c0-0.1,0.1-0.2,0.1-0.3C193.6,72.9,193.7,73,193.8,73z"/>
							<path class="st1" d="M193.8,76.3C193.8,76.3,193.8,76.3,193.8,76.3c-0.5,3.1-3.4,4.1-6.2,3.3c0,0,0,0,0,0
								c0.2,0,0.2-0.3,0.1-0.4c2.4,0.6,5-0.1,5.6-2.7C193.5,76.5,193.7,76.4,193.8,76.3z"/>
							<path class="st1" d="M193.4,76.2c0-0.2,0.3-0.2,0.4,0c-0.1,0.1-0.3,0.2-0.4,0.3C193.4,76.5,193.4,76.4,193.4,76.2z"/>
							<path class="st1" d="M193.6,72.6c0,0.1,0,0.2,0,0.3C193.5,72.8,193.6,72.7,193.6,72.6z"/>
							<path class="st1" d="M192.3,67.6c0.4,0.9,0.6,1.9,0.4,2.9c-0.1,0-0.3,0-0.4,0.1c0.4-1.4-0.3-3.1-1-4.3c0,0-0.1-0.1-0.1-0.1
								c0.2,0,0.4,0.1,0.6,0.1C192,66.7,192.2,67.2,192.3,67.6z"/>
							<path class="st1" d="M192.7,70.4c0,0.1,0,0.2-0.1,0.2c-0.1,0.2-0.5,0.2-0.4-0.1c0,0,0-0.1,0-0.1
								C192.4,70.5,192.5,70.5,192.7,70.4z"/>
							<path class="st1" d="M191.5,75.9c0.1,0.5,0,1.1-0.4,1.4c-0.2,0.1-0.4-0.2-0.2-0.3c0.3-0.2,0.3-0.6,0.3-0.9
								C191.3,76,191.4,75.9,191.5,75.9z"/>
							<path class="st1" d="M191.5,75.6c0,0.1,0,0.1,0,0.2c-0.1,0.1-0.2,0.1-0.4,0.2c0-0.1,0-0.2,0-0.2c0-0.1,0-0.1,0-0.2
								c0.1,0,0.1-0.1,0.2-0.1C191.4,75.5,191.5,75.5,191.5,75.6z"/>
							<path class="st1" d="M191.7,66.2c-0.2,0-0.4-0.1-0.6-0.1c0-0.1-0.1-0.1-0.2-0.2c0-0.1,0.1-0.2,0.2-0.2c0.1,0,0.1,0,0.2,0
								C191.5,65.9,191.6,66,191.7,66.2z"/>
							<path class="st1" d="M191.4,65.8c-0.1,0-0.1,0-0.2,0c-0.1,0-0.2,0.1-0.2,0.2c-1-1-3-0.9-3.7,0.3c-0.1-0.1-0.2-0.1-0.3-0.2
								c0.9-1.5,2.5-1.4,4-0.7C191.1,65.5,191.3,65.6,191.4,65.8z"/>
							<path class="st1" d="M191.2,75.6c0.1-0.1,0.1-0.1,0.2-0.1C191.3,75.5,191.2,75.6,191.2,75.6z"/>
							<path class="st1" d="M191.1,75.8c0,0.1,0,0.2,0,0.2c-0.5,0.2-1.1,0.3-1.6,0.2c0.1-0.2-0.2-0.4-0.3-0.2c0,0-0.1,0.1-0.1,0.1
								c-0.2-0.1-0.4-0.1-0.5-0.2c-0.2-0.1,0-0.5,0.2-0.3c0.7,0.5,1.6,0.4,2.4,0.1C191.1,75.6,191.1,75.7,191.1,75.8z"/>
							<path class="st1" d="M191.1,66.1C191.1,66.1,191.1,66.1,191.1,66.1c-0.2,0-0.2-0.1-0.2-0.2C191,66,191.1,66.1,191.1,66.1z"/>
							<path class="st1" d="M190.3,70.9C190.3,70.9,190.3,71,190.3,70.9c0,0.3-0.4,0.3-0.4,0.1c0,0,0,0,0,0
								C190,70.9,190.1,70.9,190.3,70.9z"/>
							<path class="st1" d="M187.2,66.2c1.6,1,3.1,2.8,3.1,4.7c-0.1,0-0.3,0-0.4,0c0-2-1.7-3.6-3.3-4.6c-0.9-0.5-2.5,0-3.2,0.8
								c-0.4,0.4-0.6,1.1-0.7,1.5c-0.7,2.1-0.7,5.1,0.3,7.4c0.8,1.9,2.3,3.3,4.6,3.1c-0.2,0-0.3,0.3,0,0.4c0,0,0,0,0,0
								c-5.6,0.3-6.7-7.4-5.1-11.4c0.3-0.6,0.5-1.2,1.1-1.6c0.7-0.6,2.1-1,3-0.6c0.1,0,0.2,0.1,0.3,0.1c0,0,0,0,0,0.1
								C186.7,66.3,187.1,66.5,187.2,66.2C187.2,66.3,187.2,66.3,187.2,66.2z"/>
							<path class="st1" d="M189.2,76c0.2-0.2,0.4,0,0.3,0.2c-0.2,0-0.3-0.1-0.4-0.1C189.1,76.1,189.1,76,189.2,76z"/>
							<path class="st1" d="M189.5,76.2C189.5,76.2,189.5,76.2,189.5,76.2c-0.4,0.4-0.9,0.7-1.4,0.8c-0.2,0.1-0.4-0.3-0.1-0.4
								c0.4-0.1,0.8-0.3,1.1-0.6C189.2,76.2,189.4,76.2,189.5,76.2z"/>
							<path class="st1" d="M187.7,79.2c0.2,0.1,0.1,0.4-0.1,0.4c0,0,0,0,0,0c0,0,0,0,0,0C187.4,79.6,187.4,79.2,187.7,79.2
								C187.6,79.2,187.7,79.2,187.7,79.2C187.7,79.2,187.7,79.2,187.7,79.2z"/>
							<path class="st1" d="M187.2,66.2C187.2,66.3,187.2,66.3,187.2,66.2c-0.2,0.3-0.5,0.1-0.4-0.1c0,0,0,0,0-0.1
								C187,66.1,187.1,66.2,187.2,66.2z"/>
							<path class="st1" d="M186.5,71.5c0.2,0.1,0.2,0.2,0.1,0.3c0,0.1-0.1,0.1-0.2,0.1c-0.1,0-0.2-0.1-0.2-0.1c0,0,0,0,0,0
								C186.3,71.6,186.4,71.5,186.5,71.5C186.5,71.4,186.5,71.4,186.5,71.5z"/>
							<path class="st1" d="M186.6,71.8L186.6,71.8c-0.3,0.4-0.5,0.9-0.7,1.3c-0.4,0.9-0.7,1.8-0.9,2.7c-0.1,0.2-0.4,0.2-0.4,0
								c0,0,0,0,0-0.1c0.4-1.3,0.8-2.7,1.6-3.9c0.1,0,0.2,0.1,0.2,0.1C186.5,71.9,186.6,71.8,186.6,71.8z"/>
							<path class="st1" d="M186.5,71.4c-0.1,0.1-0.2,0.2-0.2,0.3c0,0,0,0,0,0c-0.1-0.1-0.2-0.1-0.3-0.2c0,0,0,0,0.1,0
								c0.2-0.1,0-0.5-0.2-0.3c0,0-0.1,0-0.1,0c-0.4-0.5-0.6-1.2-0.7-1.8c-0.1-0.2,0.3-0.4,0.4-0.1c0.1,0.3,0.2,0.6,0.3,0.9
								C185.8,70.6,186,71.2,186.5,71.4z"/>
							<path class="st1" d="M185.8,71.1c0.2-0.1,0.4,0.2,0.2,0.3c0,0,0,0-0.1,0c-0.1-0.1-0.2-0.2-0.3-0.3
								C185.7,71.2,185.7,71.2,185.8,71.1z"/>
							<path class="st1" d="M185.6,71.2c0.1,0.1,0.2,0.2,0.3,0.3c-0.4,0.2-0.8,0-1.1-0.3c-0.2-0.2,0.1-0.5,0.3-0.3
								C185.3,71.1,185.5,71.2,185.6,71.2z"/>
						</g>
					</g>
				</g>
			</g>
		</g>
		<g>
			<g>
				<g>
					<path class="st3" d="M26.6,81.1c0.5,0.1,1,0,1.3-0.4l0.3-0.4c0.2-0.3,0.3-0.6,0.2-1c-0.1-0.3-0.3-0.6-0.6-0.8
						C27.7,78.4,8,68.2,14.1,50.8c0.1-0.3,0.1-0.7-0.1-1c-0.2-0.3-0.5-0.5-0.8-0.6l-0.6-0.1c-0.6-0.1-1.1,0.2-1.3,0.8
						c-6.9,19.8,15,30.9,15.2,31C26.5,81,26.6,81,26.6,81.1z"/>
				</g>
			</g>
			<path class="st5" d="M8.2,38.1c1.1-1.9,3.1-2.3,5.1-2c0.2-0.1,0.4-0.2,0.6-0.2c1.7-0.3,3.2,0.2,3.6,1.9c0.1,0,0.2,0,0.3,0
				c1-0.1,2.2,0.7,2.7,1.5c0.4,0.6,0.5,1.2,0.5,1.9c0.2,4.3-3.2,11.3-8.4,9.3c-2.8-0.2-5.3-2-4.8-5c0,0,0,0,0-0.1
				c-0.6-1.1-0.4-2.6,0.3-3.7C7.4,40.7,7.7,39.1,8.2,38.1z"/>
			<g>
				<g>
					<g id="XMLID_1_">
						<g>
							<path class="st1" d="M8.2,38.1c-0.5,1-0.9,2.6-0.2,3.5c0,0,0,0,0,0c0.1-0.2,0.4,0,0.3,0.2c0,0,0,0.1,0,0.1
								c0.1,0.1,0.2,0.1,0.3,0.2c0-0.1,0-0.3,0.1-0.4c-1.2-0.8-0.5-2.9,0.1-3.8c0.9-1.4,2.6-1.6,4.1-1.4c0.1-0.1,0.3-0.2,0.4-0.3
								C11.3,35.8,9.3,36.2,8.2,38.1z"/>
							<path class="st1" d="M8,41.6c-0.7,1.1-0.9,2.6-0.3,3.7c0.1-0.2,0.4-0.1,0.4,0.1c0,0.1,0,0.2,0,0.3c0.1,0.1,0.1,0.2,0.2,0.2
								c0.2,0.2,0.4-0.2,0.2-0.3c-1.1-1-0.9-2.6-0.2-3.8C8.2,41.8,8.1,41.7,8,41.6z"/>
							<path class="st1" d="M8.1,41.6C8.1,41.6,8,41.6,8.1,41.6c0.1,0.1,0.2,0.2,0.3,0.3c0,0,0-0.1,0-0.1
								C8.5,41.6,8.2,41.4,8.1,41.6z"/>
							<path class="st1" d="M9.3,40.5c-0.3,0.3-0.5,0.8-0.6,1.2c0.1,0.1,0.2,0.1,0.3,0.1c0,0,0.1,0,0.1,0.1c0.1-0.3,0.2-0.6,0.3-0.8
								c0.3-0.8,1.3-0.5,1.9-0.1c0.6,0.4,1.3,0.7,2,1c0.7,0.3,2.2,0.4,2.5,1c0.1,0.1,0.1,0.2,0.1,0.3l0,0c0-0.1,0-0.3,0.2-0.3
								c0,0,0.1,0,0.1,0c-0.2-0.4-0.5-0.7-1-0.8c-0.7-0.2-1.4-0.4-2.1-0.7c0,0,0,0,0,0c-0.1,0.2-0.4,0.1-0.4-0.1c0,0,0,0,0-0.1
								c-0.5-0.2-1-0.5-1.5-0.8c-0.1-0.1-0.2-0.1-0.3-0.2c0,0,0,0.1,0,0.1c0,0.3-0.4,0.2-0.4,0c0-0.1,0-0.2,0-0.3
								C10.2,40,9.7,40,9.3,40.5z"/>
							<path class="st1" d="M8.7,41.7c0,0.1-0.1,0.3-0.1,0.4c0.1,0,0.1,0.1,0.2,0.1c0.1,0,0.1,0,0.2,0c0-0.1,0-0.2,0.1-0.3
								c0,0-0.1-0.1-0.1-0.1C8.9,41.8,8.8,41.8,8.7,41.7z"/>
							<path class="st1" d="M8.8,42.2c-0.1,0-0.1-0.1-0.2-0.1c-0.1,0.5,0,1,0.1,1.4c0.2,0.8,0.7,1.6,1.4,2.2c0-0.1,0.1-0.1,0.1-0.2
								c0-0.1,0.1-0.1,0.2-0.1c-0.8-0.8-1.4-1.9-1.4-2.8c0-0.1,0-0.2,0-0.4C9,42.2,8.9,42.2,8.8,42.2z"/>
							<path class="st1" d="M7.8,45.3C7.8,45.4,7.7,45.4,7.8,45.3c-0.5,3.1,2,4.9,4.8,5.1c0,0,0,0,0,0c-0.2-0.1-0.1-0.4,0-0.4
								c-2.5-0.2-4.7-1.6-4.5-4.3C8,45.6,7.9,45.5,7.8,45.3z"/>
							<path class="st1" d="M8.1,45.4c0-0.2-0.3-0.3-0.4-0.1c0.1,0.2,0.2,0.3,0.3,0.4C8.1,45.7,8.1,45.6,8.1,45.4z"/>
							<path class="st1" d="M9.1,41.9C9,42,9,42.1,9,42.2C9.1,42.1,9.1,42,9.1,41.9z"/>
							<path class="st1" d="M11.9,37.5c-0.6,0.7-1.2,1.6-1.2,2.6c0.1,0.1,0.3,0.1,0.4,0.2c0-1.5,1.2-2.8,2.3-3.7
								c0,0,0.1-0.1,0.1-0.1c-0.2,0-0.4-0.1-0.6-0.1C12.5,36.8,12.2,37.2,11.9,37.5z"/>
							<path class="st1" d="M10.6,40.2c0,0.1,0,0.2,0,0.3c0,0.3,0.4,0.3,0.4,0c0,0,0-0.1,0-0.1C10.9,40.3,10.8,40.2,10.6,40.2z"/>
							<path class="st1" d="M10,45.7c-0.2,0.5-0.4,1.1,0,1.5c0.2,0.2,0.5-0.1,0.3-0.3c-0.2-0.2-0.1-0.6,0-1
								C10.2,45.8,10.1,45.7,10,45.7z"/>
							<path class="st1" d="M10.1,45.5c0,0.1-0.1,0.1-0.1,0.2c0.1,0.1,0.2,0.2,0.3,0.3c0-0.1,0.1-0.2,0.1-0.2c0-0.1,0-0.1,0-0.2
								c-0.1,0-0.1-0.1-0.2-0.1C10.3,45.4,10.2,45.4,10.1,45.5z"/>
							<path class="st1" d="M12.9,36.4c0.2,0,0.4,0.1,0.6,0.1c0.1-0.1,0.1-0.1,0.2-0.1c0-0.1,0-0.2-0.2-0.2c-0.1,0-0.1,0-0.2,0
								C13.2,36.2,13,36.3,12.9,36.4z"/>
							<path class="st1" d="M13.3,36.1c0.1,0,0.1,0,0.2,0c0.1,0,0.2,0.1,0.2,0.2c1.3-0.7,3.1,0.1,3.5,1.5c0.1,0,0.3-0.1,0.4-0.1
								c-0.4-1.7-2-2.2-3.6-1.9C13.7,35.9,13.5,36,13.3,36.1z"/>
							<path class="st1" d="M10.5,45.5c0-0.1-0.1-0.1-0.2-0.1C10.4,45.4,10.4,45.5,10.5,45.5z"/>
							<path class="st1" d="M10.5,45.7c0,0.1-0.1,0.1-0.1,0.2c0.5,0.4,1,0.6,1.5,0.7c0-0.2,0.3-0.3,0.4-0.1c0,0.1,0.1,0.1,0.1,0.1
								c0.2,0,0.4,0,0.6-0.1c0.2-0.1,0.2-0.5-0.1-0.4c-0.8,0.2-1.7-0.1-2.3-0.7C10.5,45.6,10.5,45.6,10.5,45.7z"/>
							<path class="st1" d="M13.5,36.5C13.5,36.5,13.5,36.5,13.5,36.5c0.2,0,0.2-0.1,0.2-0.1C13.6,36.4,13.5,36.5,13.5,36.5z"/>
							<path class="st1" d="M12.8,41.3C12.8,41.4,12.8,41.4,12.8,41.3c-0.1,0.3,0.3,0.5,0.3,0.2c0,0,0,0,0,0
								C13,41.5,12.9,41.4,12.8,41.3z"/>
							<path class="st1" d="M17.1,37.9c-1.8,0.4-3.8,1.7-4.4,3.5c0.1,0.1,0.2,0.1,0.4,0.2c0.6-1.9,2.7-2.9,4.5-3.3
								c1.1-0.2,2.3,0.8,2.8,1.7c0.2,0.5,0.2,1.2,0.2,1.7c0,2.2-0.9,5.1-2.6,6.9c-1.4,1.5-3.2,2.4-5.4,1.5c0.2,0.1,0.1,0.4-0.1,0.4
								c0,0,0,0,0,0c5.2,2,8.7-5,8.4-9.3c0-0.7-0.1-1.3-0.5-1.9c-0.5-0.8-1.7-1.6-2.7-1.5c-0.1,0-0.2,0-0.3,0c0,0,0,0.1,0,0.1
								C17.6,38.1,17.2,38.2,17.1,37.9C17.2,37.9,17.1,37.9,17.1,37.9z"/>
							<path class="st1" d="M12.2,46.5c-0.1-0.2-0.4-0.1-0.4,0.1c0.1,0,0.3,0,0.5,0C12.3,46.6,12.3,46.6,12.2,46.5z"/>
							<path class="st1" d="M11.9,46.6C11.9,46.6,11.9,46.7,11.9,46.6c0.3,0.5,0.6,1,1.1,1.2c0.2,0.1,0.5-0.2,0.2-0.3
								c-0.3-0.2-0.6-0.5-0.8-0.9C12.2,46.7,12,46.6,11.9,46.6z"/>
							<path class="st1" d="M12.6,50.1c-0.2,0-0.3,0.3,0,0.4c0,0,0,0,0,0c0,0,0,0,0,0C12.8,50.5,12.9,50.1,12.6,50.1
								C12.7,50.1,12.7,50.1,12.6,50.1C12.6,50.1,12.6,50.1,12.6,50.1z"/>
							<path class="st1" d="M17.1,37.9C17.1,37.9,17.2,37.9,17.1,37.9c0.1,0.3,0.5,0.3,0.4,0c0,0,0-0.1,0-0.1
								C17.4,37.8,17.3,37.8,17.1,37.9z"/>
							<path class="st1" d="M16.2,43c-0.2,0-0.2,0.2-0.2,0.3c0,0.1,0.1,0.1,0.2,0.1c0.1,0,0.2,0,0.3,0c0,0,0,0,0,0
								C16.3,43.2,16.3,43.1,16.2,43C16.2,43,16.2,43,16.2,43z"/>
							<path class="st1" d="M16,43.3L16,43.3c0.2,0.4,0.2,1,0.2,1.4c0.1,0.9,0.1,1.9,0.1,2.8c0,0.2,0.3,0.3,0.4,0.1c0,0,0,0,0-0.1
								c0.1-1.4,0.1-2.8-0.3-4.2c-0.1,0-0.2,0-0.3,0C16,43.4,16,43.4,16,43.3z"/>
							<path class="st1" d="M16.3,43c0,0.1,0.1,0.2,0.1,0.4c0,0,0,0,0,0c0.1,0,0.2-0.1,0.4-0.1c0,0,0,0,0-0.1
								C16.5,43,16.8,42.8,17,43c0,0,0.1,0.1,0.1,0.1c0.5-0.4,0.9-1,1.2-1.5c0.1-0.2-0.2-0.4-0.3-0.2c-0.2,0.3-0.3,0.5-0.5,0.7
								C17.2,42.4,16.7,43,16.3,43z"/>
							<path class="st1" d="M17,43c-0.2-0.2-0.5,0.1-0.3,0.2c0,0,0,0,0,0.1c0.1-0.1,0.2-0.1,0.4-0.2C17.1,43,17,43,17,43z"/>
							<path class="st1" d="M17.1,43.1c-0.1,0.1-0.2,0.2-0.4,0.2c0.3,0.3,0.7,0.2,1.1,0.1c0.2-0.1,0.1-0.5-0.2-0.4
								C17.5,43.1,17.3,43.1,17.1,43.1z"/>
						</g>
					</g>
				</g>
			</g>
		</g>
		<g>
			<g>
				<g>
					<path class="st0" d="M107.7,152.9c0.6,2.3,1.6,4.7,3.4,6.4c2.4,2.3,6.9,1.4,9.7,0.6c2.2-0.6,1.3-3.9-0.9-3.4
						c-1.8,0.5-5.2,1.4-6.7,0c-1.2-1.1-1.8-3-2.2-4.6C110.4,149.8,107.1,150.7,107.7,152.9L107.7,152.9z"/>
				</g>
			</g>
			<path class="st1" d="M131,164.5c0-0.4-0.1-0.7-0.2-1.1c-0.3-2-0.9-4.2-1.8-6.4c-0.3-0.8-0.6-1.5-0.9-2.1l0-0.1
				c-0.2-0.4-0.4-0.8-0.9-0.9c-0.5-0.1-1.1,0.2-1.5,0.4c-0.4,0.2-0.9,0.4-1.3,0.6l-0.1,0.1c-0.4,0.2-0.9,0.3-1.4,0.3l-0.1,0
				c-0.4,0-0.8,0.1-1.1,0.1c0,0,0,0-0.1,0c-0.1-0.1-0.2-0.2-0.3-0.2c-0.2-0.1-0.3-0.1-0.5,0c-0.4,0.2-0.9,0.6-0.9,1
				c0,0.1,0,0.3,0.1,0.4c0,0,0,0.1,0,0.1c0.1,0.2,0.1,0.4,0.1,0.6l0,0.1c0.1,0.3,0.1,0.7,0.1,1.1c0,0.3-0.1,0.6-0.1,1
				c0,0.2-0.1,0.4-0.1,0.6c-0.1,0.6,0.1,1,0.4,1.2c0.2,0.1,0.4,0.1,0.7,0.1l0,0.1l0.1-0.1c0,0,0.1,0,0.2,0c0,0.2,0.1,0.3,0.1,0.5
				c0.1,0.3,0.2,0.6,0.4,1l0,0.1c0.2,0.3,0.4,0.6,0.6,0.8c0,0,0,0,0.1,0c-0.5,0.8-0.7,1.9-0.5,3.1c0.2,1,0.5,1.9,1.1,2.6
				c0.7,1,1.9,1.8,3.1,1.9c1.3,0.2,2.6,0,3.8-0.3c0.1,0,0.2,0,0.3-0.1c0.2,0,0.3-0.3,0.3-0.6c0,0,0-0.1,0-0.1
				c0.2-0.5,0.3-1.1,0.4-1.8C131.2,167.3,131.2,166,131,164.5z"/>
			<path class="st6" d="M131,164.5c0-0.4-0.1-0.7-0.2-1.1c-0.3-2-0.9-4.2-1.8-6.4c-0.3-0.8-0.6-1.5-0.9-2.1l0-0.1
				c-0.2-0.4-0.4-0.8-0.9-0.9c-0.5-0.1-1.1,0.2-1.5,0.4c-0.4,0.2-0.9,0.4-1.3,0.6l-0.1,0.1c-0.4,0.2-0.9,0.3-1.4,0.3l-0.1,0
				c-0.4,0-0.8,0.1-1.1,0.1c0,0,0,0-0.1,0c-0.1-0.1-0.2-0.2-0.3-0.2c-0.2-0.1-0.3-0.1-0.5,0c-0.4,0.2-0.9,0.6-0.9,1
				c0,0.1,0,0.3,0.1,0.4c0,0,0,0.1,0,0.1c0.1,0.2,0.1,0.4,0.1,0.6l0,0.1c0.1,0.3,0.1,0.7,0.1,1.1c0,0.3-0.1,0.6-0.1,1
				c0,0.2-0.1,0.4-0.1,0.6c-0.1,0.6,0.1,1,0.4,1.2c0.2,0.1,0.4,0.1,0.7,0.1l0,0.1l0.1-0.1c0,0,0.1,0,0.2,0c0,0.2,0.1,0.3,0.1,0.5
				c0.1,0.3,0.2,0.6,0.4,1l0,0.1c0.2,0.3,0.4,0.6,0.6,0.8c0,0,0,0,0.1,0c-0.5,0.8-0.7,1.9-0.5,3.1c0.2,1,0.5,1.9,1.1,2.6
				c0.7,1,1.9,1.8,3.1,1.9c1.3,0.2,2.6,0,3.8-0.3c0.1,0,0.2,0,0.3-0.1c0.2,0,0.3-0.3,0.3-0.6c0,0,0-0.1,0-0.1
				c0.2-0.5,0.3-1.1,0.4-1.8C131.2,167.3,131.2,166,131,164.5z M121.6,155.8L121.6,155.8L121.6,155.8L121.6,155.8z M121.4,160.8
				L121.4,160.8C121.4,160.8,121.4,160.8,121.4,160.8c-0.3,0.1-0.5,0.1-0.7,0c-0.1,0-0.2-0.1-0.2-0.3c0-0.2,0-0.4,0-0.6v0
				c0.1-1,0.2-1.8,0.1-2.7c0-0.2-0.1-0.3-0.1-0.5c0-0.1,0-0.1-0.1-0.2c-0.1-0.2-0.1-0.4,0-0.5c0.1-0.2,0.3-0.3,0.5-0.4
				c0.1,0,0.2-0.1,0.2,0c0.1,0,0.1,0.1,0.2,0.2c0.2,0.3,0.3,0.7,0.4,1.2c0.2,0.9,0.2,1.8,0,2.6v0.1c0,0.1,0.1,0.2,0.2,0.2
				c0.1,0,0.2,0,0.2-0.1c0,0,0,0,0-0.1c0.2-0.8,0.2-1.7,0.1-2.5c-0.1-0.3-0.1-0.7-0.2-1l0-0.1c0-0.1,0-0.2-0.1-0.2
				c0.9,0,1.9,0,2.8-0.5c0.3-0.1,0.6-0.3,0.8-0.4c0,0.1,0,0.1,0,0.2c1.1,1.6,1.9,3.6,2.4,5.8c-0.9-0.1-1.9,0.1-2.7,0.5
				c0,0,0-0.1,0-0.1c0.1-0.2,0-0.6,0-0.8l0-0.1c0-0.2-0.1-0.3-0.1-0.5c-0.1-0.1-0.1-0.3-0.2-0.4c-0.2-0.2-0.6-0.4-0.9-0.5
				c-0.7-0.2-1.3,0.2-1.7,0.7C121.8,160.1,121.6,160.5,121.4,160.8z M121.7,161.4c0-0.1,0-0.2,0-0.3c0.3-0.6,1-1.8,1.9-1.7
				c0.2,0,0.4,0.1,0.7,0.3c0.3,0.2,0.4,0.5,0.5,0.8c0,0.2,0,0.4,0,0.6c0,0.3-0.4,0.6-0.7,0.9c-0.1,0.1-0.2,0.2-0.3,0.3
				c-0.2,0.2-0.4,0.4-0.6,0.6c0,0,0,0-0.1,0.1c0,0,0,0,0,0c-0.1,0.1-0.2,0.2-0.3,0.2c0,0-0.1,0-0.1-0.1
				C122.3,162.9,121.8,162.2,121.7,161.4z M123,163.4L123,163.4C123,163.4,123,163.4,123,163.4C123,163.4,123,163.4,123,163.4z
				 M128,170.7c0,0.1,0,0.1,0,0.2v0.1c-0.4,0-0.7,0-1,0c-1.8-0.1-3.3-1.2-4-3c-0.2-0.4-0.3-0.8-0.3-1.2c-0.2-1.3,0.1-2.5,0.7-3.3
				c0,0,0,0,0,0c1-1.3,2.8-2.4,4.6-2c0,0.2,0.1,0.4,0.1,0.6c0.1,0.8,0.2,1.7,0.3,2.6C128.4,166.8,128.3,168.8,128,170.7z
				 M130.5,169.1c-0.1,0.3-0.1,0.6-0.2,0.9c0,0,0,0.1,0,0.1c-0.1,0.3-0.1,0.4-0.1,0.5c-0.6,0.1-1.2,0.2-1.8,0.3
				c0.2-1.3,0.4-2.8,0.4-4.7c0-1.5-0.1-2.9-0.3-4.3c0-0.2-0.1-0.4-0.1-0.6c0,0,0.1-0.1,0.1-0.2c0-0.1-0.1-0.1-0.1-0.2
				c-0.3-1.5-0.7-2.8-1.3-4c-0.3-0.7-0.7-1.4-1.2-2.1c0,0-0.1-0.1-0.1-0.1c0.2-0.1,0.4-0.2,0.5-0.2c0.3-0.1,1-0.4,1.3-0.1
				c0.3,0.3,0.5,0.8,0.7,1.2l0,0.1c0,0.1,0.1,0.1,0.1,0.2c0.4,0.9,0.8,1.9,1.1,3c0.5,1.6,0.9,3,1.1,4.4c0.2,1.3,0.3,2.6,0.3,3.7
				C130.7,167.9,130.7,168.5,130.5,169.1z"/>
		</g>
	</g>
	<ellipse transform="matrix(0.7071 -0.7071 0.7071 0.7071 -31.9596 93.4209)" class="st7" cx="96.8" cy="85.3" rx="72" ry="72"/>
	<g>
		<path class="st8" d="M99.5,156.9c0.6,0.5,1.5,0.4,2.3,0.3c1.5-0.2,3-0.5,4.5-0.7c0.4-0.1,0.8-0.1,1.1-0.4
			c-2.6,0.4-5.2,0.6-7.9,0.7C99.4,156.8,99.4,156.9,99.5,156.9z"/>
		<path class="st8" d="M156.6,45.8c-0.4-0.5-0.7-0.9-1.1-1.4c1.2,1.7,2.3,3.5,3.3,5.3C158.2,48.3,157.6,47,156.6,45.8z"/>
		<path class="st8" d="M135.2,24.6c0.9,0.8,2.1,1.2,3.2,1.8c-1.4-1-2.7-1.9-4.2-2.7C134.5,24,134.8,24.3,135.2,24.6z"/>
		<path class="st8" d="M77.8,66.4c0.1,0,0.1,0,0.2-0.1C77.9,66.3,77.8,66.3,77.8,66.4z"/>
		<path class="st8" d="M147.7,34.6c0.3,0.2,0.6,0.4,0.9,0.6c-1.8-1.9-3.7-3.6-5.7-5.3C144.5,31.5,145.9,33.3,147.7,34.6z"/>
		<path class="st8" d="M156.2,44.5c-1.1-1.7-2.4-3.3-3.6-4.8c0.1,0.1,0.1,0.2,0.2,0.3C153.7,41.6,155,43,156.2,44.5z"/>
		<path class="st8" d="M78,66.3c0.1,0,0.1,0,0.2,0.1c0-0.1,0.1-0.1,0.1-0.2C78.2,66.2,78.1,66.3,78,66.3z"/>
		<path class="st8" d="M108,155.1c0.2-0.2,0.5-0.3,0.7-0.4c1.2-0.5,2.2-1.6,2.6-2.9c0.1-0.3,0.1-0.7,0.3-0.9c0.6-1,2.4-0.7,3.2-1.7
			c0.3-0.3,0.4-0.8,0.6-1.1c0.3-0.4,0.7-0.6,1-1c0.5-0.7,0.4-1.6,0.5-2.5c0.2-1.9,1.8-3.4,2.2-5.2c0.1-0.3,0.1-0.6,0.3-0.9
			c0.2-0.3,0.4-0.6,0.6-0.8c1-1.1,2.2-2.7,2.2-4.2c0-0.3,0-0.5,0-0.8c-0.5-0.5-1.5-0.1-2.1-0.6c-0.3-0.3-0.4-0.7-0.7-1
			c-0.2-0.2-0.5-0.3-0.8-0.4c-1.3-0.3-2.7-0.6-3.9-0.1c-0.3,0.1-0.7,0.3-1,0.3c-0.4,0-0.8-0.2-1.1-0.4c-1.4-0.6-3.1-0.7-4.6-0.2
			c-0.5,0.2-0.9,0.4-1.4,0.5c-0.5,0.1-1.1-0.1-1.3-0.5c-0.4-0.8,0.4-1.6,1.1-2.1c-0.1-0.4-0.3-0.7-0.4-1.1c-0.9-0.3-1.3-1.4-2-2.1
			c-1-1.2-2.7-1.7-4.1-1.2c-0.5,0.2-1,0.4-1.5,0.4c-0.7-0.1-1.2-0.6-1.8-1c-1.2-1-2.8-1.6-4.4-1.5c-0.1-1.3-0.2-2.6-0.2-4
			c-0.7-0.5-1.3,0.8-2.1,1c-0.5,0.1-0.9-0.2-1.3-0.4c-0.9-0.4-2.1-0.4-2.8,0.4c-0.2,0.2-0.3,0.6-0.6,0.7c-0.8,0.5-1.6-0.6-2-1.4
			c-0.3,0.4-0.4,0.8-0.4,1.3c-0.2-0.1-0.5-0.1-0.8-0.1c0-0.5,0-1.1-0.3-1.5c-0.2-0.5-0.8-0.8-1.3-0.7c0.1,1.1,0.1,2.2-0.2,3.3
			c-0.5,0.2-1-0.3-1.1-0.8c-0.1-0.5,0.1-1,0.1-1.5c0-0.5-0.2-1.1-0.7-1.2c-0.1,1.3-1.3,2.2-2.4,3c-1,0.8-2.1,2.1-1.5,3.3
			c-0.6-1.1-2-1.1-3.2-1c-1.1,0.1-2.2,0.2-3.3,0.3c-0.1-1.1-0.8-2-1.7-2.7c-0.3-0.2-0.6-0.5-0.8-0.8c-0.2-0.5,0-1.1,0.1-1.7
			c0.2-1.1-0.2-2.4-1-3.2c-0.2-0.2-0.3-0.3-0.5-0.4c-0.6-0.2-1.2,0.2-1.8,0.6c-0.5,0.4-1.4,0.6-1.7,0.1c-0.1-0.2-0.2-0.3-0.2-0.5
			c-0.5-1.9-0.9-3.8-0.8-5.8c0-0.5,0.1-1.1,0-1.6c-0.2-0.8-0.8-1.4-1.5-1.6c-0.7-0.2-1.6,0.1-2.1,0.7c-0.8,1-0.6,2.4-0.5,3.6
			c0,0.5,0,1.1-0.3,1.4c-0.5,0.5-1.4,0.3-1.9-0.2c-0.5-0.5-0.8-1.1-1.2-1.7c-0.6-0.8-1.4-1.4-2.4-1.6c-0.1-0.9-0.4-1.6-0.8-2.5
			c-1.1-2.2-0.8-4.8-0.5-7.3c0.1-0.7,0.2-1.4,0.5-2c0.6-1.2,1.9-1.9,3.3-1.8c0.6,0.1,1.2,0.3,1.8,0.4c0.6,0.1,1.3,0.1,1.8-0.4
			c0.5-0.4,0.5-1.3-0.1-1.6c0.9-0.6,2-1.1,2.9-0.5c0.7,0.5,0.8,1.5,1.6,2c0.5,0.3,1.1,0.3,1.6,0.7c0.3,0.2,0.5,0.6,0.7,1
			c0.4,0.8,0.7,1.5,1.1,2.3c0.3,0.6,0.6,1.3,1.2,1.7c0.6,0.4,1.5,0.3,1.8-0.3c0.3-0.6-0.1-1.2-0.5-1.7c-0.4-0.5-0.9-0.9-1-1.6
			c-0.1-0.4,0-0.8-0.1-1.1c-0.2-0.5-0.8-0.8-1.1-1.3c-0.6-0.9,0.2-2.1,0.9-2.9c0.7-0.8,1.5-2,0.9-2.9c0.8,0,1.5-0.6,1.9-1.3
			c0.4-0.7,0.5-1.5,0.7-2.2c0.3-1.6,0.6-3.4-0.2-4.9c-0.2-0.3-0.4-0.8-0.2-1.1c0.1-0.1,0.3-0.2,0.5-0.2c1.6-0.4,2.7-2,2.6-3.6
			c0.6-0.3,1-0.8,1.2-1.4c0.3,0.1,0.7,0.3,1,0.4c0.8,0,1-1.1,0.9-1.8c-0.1-0.8-0.3-1.7,0.3-2.1c0.2-0.2,0.5-0.2,0.8-0.3
			c1-0.3,2-1.2,2.6-2.1c-0.1,0-0.1-0.1-0.2-0.1c-0.1,0-0.1,0-0.2,0.1c0.1-0.1,0.1-0.1,0.2-0.1c0.1,0,0.2-0.1,0.3-0.1
			c0,0.1-0.1,0.1-0.1,0.2c0.2,0.1,0.4,0.5,0.4,0.8c0,0.5,0,1.1,0.5,1.3c0.4,0.1,0.7-0.1,1-0.4c1.1-1.2,1.8-2.7,3.2-3.5
			c0.4-0.2,0.8-0.4,1.1-0.7c0.4-0.5,0.3-1.2-0.1-1.6c-0.4-0.4-1.1-0.5-1.6-0.1c0.1,0.4,0.1,0.8-0.1,1.1c-0.2,0.3-0.7,0.5-1,0.3
			c-0.5-0.7-1.6-0.9-2.3-0.4c-0.5-0.8-0.2-1.8,0.2-2.6c0.3-0.5,0.6-1,1.1-1.2c0.4-0.2,0.8-0.2,1.2-0.3c0.4-0.2,0.7-0.6,0.5-1
			c-0.8-0.6-1.9,0.4-2.8,0.6c-0.3,0.1-0.7,0.1-1,0.2c-1.3,0.3-2,1.8-2.5,3.1c-0.5,0.3-1.2-0.1-1.3-0.6c-0.1-0.5,0.1-1.1,0.5-1.5
			c0.4-0.4,0.8-0.8,1.2-1.2c0.3-0.3,0.5-0.7,0.9-0.9c1.3-0.9,3.5,0.2,4.5-0.9c0.2-0.2,0.3-0.5,0.6-0.7c0.4-0.3,0.9-0.2,1.4-0.3
			c0.5-0.1,1-0.5,0.8-1c0.5-0.2,1.1-0.1,1.7-0.2c0.6-0.1,1.2-0.4,1.2-1c0-0.7-0.9-1.1-1.1-1.8c-0.1-0.3-0.1-0.6-0.2-0.8
			c-0.2-0.6-0.8-0.8-1.4-1.1c-1.5-0.9-2.4-2.5-3.2-4.1c-0.3-0.6-0.7-1.3-0.8-2c-0.1-0.7-0.2-1.7-0.9-2c-0.6-0.2-1.1,0.3-1.4,0.8
			c-0.3,0.5-0.5,1.1-1,1.4c-0.4,0.3-1,0.3-1.5,0.3c-0.8-1,0.1-2.9,1.4-2.8c0.3-0.4-0.1-0.9-0.6-1.1c-0.5-0.1-1,0-1.4-0.3
			c-0.3-0.2-0.5-0.4-0.7-0.6c-0.9-0.5-1.9,0.4-2.9,0.3c-0.4,0-0.8-0.2-1.1-0.1c-0.5,0.2-0.7,0.8-0.7,1.3c0,0.5,0.2,1.1,0.1,1.6
			c-0.1,0.7-0.6,1.2-0.7,1.9c-0.2,0.7,0.3,1.6,1,1.4c0,1.6-0.2,3.5-1.6,4.3c-0.5,0.3-1,0.4-1.3,0.8c-0.8,1.2,1.3,2.9,0.5,4.1
			c-0.2,0.3-0.6,0.5-0.9,0.6c-1.1,0.2-2.1-0.9-1.9-2c0.1-0.6,0.5-1.1,0.7-1.7c0.2-1-0.7-2.1-1.7-2.1c0-1.3-1.3-2.5-2.6-2.3
			c-0.5,0-1.1,0.2-1.4-0.2c-0.2-0.2-0.2-0.5-0.1-0.8c0-0.6,0.1-1.3,0.1-1.9c0-0.7,0.1-1.4,0.5-2c0.2-0.3,0.5-0.5,0.8-0.8
			c1.1-0.9,2.1-2.3,3.4-2.1c-0.2-0.8-0.2-1.8,0.4-2.4c0.6-0.6,1.9-0.4,2,0.4c0,0.2,0,0.5,0.2,0.6c0.1,0.1,0.3,0.1,0.5,0.1
			c0.8,0,1.7-0.3,2.3-0.8c0.6-0.6,0.9-1.5,0.7-2.2c-0.2-0.5-0.5-0.8-0.6-1.3c-0.1-0.4,0.1-0.6,0.5-0.7c0,0,0,0,0,0
			c0-0.1,0.1-0.2,0.2-0.3c0.6-0.4,1.3-0.6,2.1-0.7c-0.5-1.5,1.2-3.2,2.7-2.7c-0.5,1.3,0.7,3.1-0.4,4.1c-0.5,0.4-1.2,0.4-1.7,0.6
			c-0.6,0.2-1.1,1-0.7,1.4c1.2,0.3,2.3,0.9,3.2,1.8c0.5,0.6,1,1.2,1.7,1.6c0.7,0.4,1.6,0.3,2.2,0c-0.2-0.7-0.5-1.4-0.7-2
			c-0.3,0-0.6,0-0.9,0c-0.3-0.2-0.4-0.8,0-1.1c0.3-0.2,0.9,0,1,0.4c0.3,0.1,0.6,0,0.8-0.2c0.1-0.5,0.2-1,0.3-1.6
			c-0.3-0.1-0.6-0.2-1-0.3c0-0.3,0-0.6,0-0.9c0.4,0.1,0.8,0.1,1.2,0.2c0.2,0.6,0.7,1.1,1.3,1.2c0.1-1-0.6-1.9,0.3-3
			c0.4-0.5-0.3-0.5-0.8-1c-1.1-0.1-1.8-0.8-2.8-0.4c0.8-1.4,1.5-3.2,0.4-4.3c-0.4,0.1-0.8-0.2-0.8-0.6c0-0.4,0.2-0.7,0.4-1
			c-0.3-0.5-1-0.6-1.6-0.7c-2-0.1-4-0.1-6-0.1c0.7-0.6-0.1-1.8-1-1.8c-0.9,0-1.6,0.7-2.2,1.4c-0.3,0.3-0.5,0.7-0.4,1.1
			c-0.6-0.3-1.2,0.3-1.5,0.9c-0.3,0.6-0.5,1.3-1,1.5c-0.3,0.1-0.7,0.1-1,0.4c-0.4,0.3-0.4,0.8-0.4,1.3c-0.1,0.5-0.4,1-0.9,0.9
			c-0.7-0.7-0.9-1.7-0.6-2.6c-0.6-0.2-1.1-0.4-1.7-0.6c0-0.7,0.8-1.2,1.4-1.6c0.6-0.4,1.2-1.2,0.8-1.8c-0.3-0.1-0.6-0.3-0.9-0.4
			c-8,4.5-15.1,10.4-20.8,17.5c-0.3,0.4-0.5,0.7-0.8,1.1c1.8-0.4,3.3-1.8,3.9-3.5c0.8,0,1.2,1,0.9,1.7c-0.2,0.7-0.9,1.2-1.3,1.8
			c-0.5,0.6-0.9,1.4-1.3,2.2c-0.3,0.7-0.7,1.3-1,2c-0.7,1.2-0.5,2.5-1.1,3.7c-1.1,2-3,4-4,6c-0.3,0.5-0.3,0.9-0.5,1.4
			c-0.2,0.8,0,1.6,0,2.5c0,0.8-0.4,1.8-1.2,2c-0.9,1.7-0.7,3.9-1.2,5.8C33,67.9,32,69,31.7,70.5c-0.4,1.8-0.9,3.6-0.7,5.4
			c0,0.5,0.1,1,0.4,1.4c0.2,0.4,0.5,0.8,0.8,1.2c0.7,1.2,0.8,3-0.1,4.1c-0.3,1.4,0,3,0.7,4.2c0.3,0.6,0.7,1.1,1,1.7
			c0.3,0.6,0.4,1.4,0.5,2.1c0.1,1.5,0.2,2.9,0.1,4.4c-0.1,0.8-0.1,1.6,0.3,2.2c0.3,0.4,0.9,0.7,1.1,1.2c0.1,0.4,0.1,0.8,0.3,1.1
			c0.3,0.4,0.9,0.4,1.3,0.7c0.4,0.3,0.6,0.8,0.9,1.2c0.3,0.4,0.8,0.8,1.3,0.6c-1.1-2.4-2.1-4.9-3.1-7.3c-0.1-0.4-0.3-0.8-0.3-1.2
			c0-0.4,0.1-0.9,0.1-1.3c0-1.5-1.8-2.8-1.2-4.3c0.9,0.1,1.6,0.9,1.8,1.8c0.3,0.9,0.2,1.8,0.4,2.7c0.1,0.8,0.4,1.6,0.7,2.3
			c0.2,0.5,0.4,1,0.6,1.5c0.8,2.1,2.3,4.2,2.5,6.5c0.2,1.4,0.8,2.7,1.7,3.7c0.7,0.7,1.5,1.3,1.9,2.2c0.2,0.4,0.2,0.9,0.4,1.4
			c0.4,1,1.4,1.5,2.3,2c0.5,0.3,1,0.6,1.5,0.9c1.2,0.7,2.5,1.4,3.9,1.2c0.4-0.1,0.8-0.2,1.3-0.2c0.4,0,1.1-0.1,1.1,0.3
			c0.3,0.1,0.5,0.3,0.7,0.5c1.4,1.5,3.4,2.5,5.4,2.9c0.7,0.4,1.3,1,1.7,1.7c0.2,0.4,0.4,0.9,0.8,1.2c0.2,0.1,0.4,0.2,0.6,0.3
			c0.5,0.3,0.7,0.9,1,1.4c0.3,0.5,0.6,0.5,1,0.1c-0.3,0.1,1.6,1.4,1.8,2.2c0.5-0.6,1.7-0.5,2.1,0.3c0.1,0.2,0.1,0.4,0.2,0.6
			c0.2,0.4,0.7,0.6,1.1,0.5c0.4-0.1,0.7-0.5,0.8-0.9c0-0.1,0-0.3,0.1-0.4c0.1-0.1,0.1-0.1,0.2-0.2c0.5-0.1,1,0.3,1.3,0.8
			c0.3,0.5,0.5,1,0.9,1.3c0.2,0.1,0.3,0.1,0.5,0.2c0.5,0.4,0.1,1.2,0.3,1.9c0.1,0.6,0.6,1,0.8,1.6c0.4,1.4-1.7,2.7-1.8,4.2
			c0,1.7,2.6,2.4,2.7,4c0.1,0.5-0.2,1.2,0.2,1.6c0.3,0.3,0.7,0.2,1.1,0.3c0.6,0.1,1.2,0.5,1.7,1c1.2,1,2.3,2.3,3.2,3.6
			c0.2,0.3,0.4,0.6,0.6,0.8c0.3,0.2,0.7,0.3,1,0.4c1.4,0.4,2.8,0.7,4.3,1.1c0.3,0.1,0.6,0.2,0.8,0.3c0.6,0.4,0.9,1.2,1.5,1.6
			c0.4,0.2,0.9,0.3,1.3,0.5c0.9,0.5,1.2,1.5,1.6,2.5c0.5,1.2,1.4,2.4,2.6,2.7c0.3,0.1,0.7,0.1,1,0.3c0.6,0.4,0.8,1.2,1.3,1.7
			c2.7-0.1,5.3-0.3,7.9-0.7c0,0,0.1-0.1,0.1-0.1C107.7,155.7,107.8,155.3,108,155.1z"/>
		<path class="st8" d="M70.8,33.6c-0.1,0-0.1,0-0.2,0C70.7,33.7,70.9,33.6,70.8,33.6z"/>
		<path class="st8" d="M90,59c-0.2-0.1-0.5-0.1-0.6-0.3c-0.1-0.1-0.1-0.3,0-0.4c0-0.3,0.1-0.7,0.1-1c0-0.1,0-0.2,0-0.3
			c-0.1-0.3-0.5-0.1-0.8-0.1c-0.4,0-0.7-0.2-0.9-0.5c-0.2-0.3-0.3-0.7-0.4-1c-0.2-0.1-0.4-0.1-0.6,0.1c-0.1,0.1-0.2,0.3-0.3,0.5
			c-0.2,0.7-0.5,1.4-0.7,2.1c-0.8,0.5-1,1.7-0.6,2.5c0.3,0.5,1.2,0.4,1.3-0.2c0.4-0.2,0.8-0.2,1.2,0c0.6,1,1.9,1.5,3,1.2
			c0.2,0,0.4-0.1,0.5-0.3c0.2-0.2,0.2-0.6,0.1-1C91.2,59.7,90.7,59.2,90,59z"/>
		<path class="st8" d="M96.8,23.3c-0.5-0.3-1.1-0.2-1.4,0.2c-0.1-0.3-0.3-0.7-0.4-1c-0.3,0-0.6-0.1-0.9-0.1c-0.3-2.3-2.5-4.1-4.8-4
			c-0.6,0-1.2,0.2-1.8,0c-0.6-0.2-1-0.9-0.6-1.4c0.8-0.7,2.1-0.3,3.1,0c1.6,0.5,3.2,0.7,4.8,0.8c0.5,0,1,0,1.5-0.2
			c0.5-0.2,0.9-0.7,0.8-1.2c-2.9-0.5-5.9-0.6-8.8-0.5c-0.2-0.6-1-0.9-1.7-0.9c-0.7,0.1-1.3,0.4-1.9,0.8c-0.5,0.3-1.1,0.7-1.6,1
			c-0.9,0.6-1.8,1.1-2.8,1.6c-1.8,0.9-3.8,1.5-5.8,1.5c-0.3,0.8-1,1.4-1.9,1.7c0,0.6,0.7,0.9,1.2,0.8c0.6-0.1,1.1-0.4,1.6-0.4
			c0.8,0,1.6,0.6,2.4,0.6c1,0,1.7-0.7,2.5-1.2c0.8-0.5,2-0.8,2.6,0c0.4,0.5,0.3,1.1,0.4,1.7c0.1,0.6,0.6,1.3,1.1,1.1
			c-0.2,0.9-0.2,1.9-0.1,2.9c0.4,0,0.8,0,1.2,0c0.4,0.9,0.4,2,0,2.9c0.2-0.1,0.5,0.1,0.6,0.3c0.1,0.2,0,0.5-0.1,0.7
			c-0.4,1.7,0.8,3.2,2,4.5c0.3,0.4,0.7,0.8,1.1,1c0.3,0.1,0.6,0.2,0.8,0.4c0.4,0.3,0.7,0.8,1,1.2c0.7,1,2,1.5,3.2,1.4
			c0.5-1.5,0.1-3.1-0.1-4.7c-0.2-1.6-0.1-3.4,1.1-4.4c0.1-0.1,0.3-0.2,0.4-0.4c0.1-0.3-0.1-0.6-0.1-0.9c0-1,1.4-1.3,2-2.1
			c0.6-0.7,0.5-1.7,0.2-2.5C97.6,24,97.3,23.5,96.8,23.3z"/>
		<path class="st8" d="M114.8,28.3c-0.2-0.3-0.5-0.6-0.9-0.6c-0.2,0-0.4,0-0.6-0.1c-0.3-0.2-0.5-0.6-0.9-0.7c-0.1,0-0.4-0.1-0.3-0.2
			c-0.3,0-0.7,0-1,0c-0.3,0.3,0,1-0.4,1.2c-0.1,0.1-0.2,0.1-0.3,0.1c-0.3,0-0.6-0.2-0.9-0.2c-0.6,0-1.1,0.5-1.1,1.1
			c0.4,0,0.8,0,1.3,0c0.1,0,0.3,0,0.4,0.1c0,0.1,0,0.2,0,0.3c0,0.3,0.2,0.5,0.4,0.6c0.2,0.1,0.5,0.2,0.8,0.2c-0.1,0.1-0.1,0.3,0,0.4
			s0.3,0.2,0.4,0.2c0.2,0.1,0.5,0.1,0.7,0.2c0.2,0.1,0.5,0.1,0.7,0.1c0.3-0.1,0.5-0.3,0.8-0.4c0.4-0.2,0.8,0,1.3,0
			c0.2,0,0.4,0,0.5-0.1c0.4-0.2,0.5-0.7,0.3-1.1C115.4,29.5,114.9,28.9,114.8,28.3z"/>
		<path class="st8" d="M111.3,16.9c-0.7-0.2-1.4,0.2-1.6,0.9c0.8,0.3,1.7,0.5,2.5,0.4c0.2,0.7,0.3,1.5,0.4,2.3
			c1.8-0.1,3.5-0.1,5.3-0.1c-0.3,0.2-0.3,0.7-0.1,1c0.2,0.3,0.5,0.5,0.8,0.8c0.6,0.5,0.9,1.2,1.1,2c1-1,3.1-0.3,3.4,1
			c0.1,0.2,0.1,0.5,0.2,0.7c0.2,0.3,0.7,0.3,1,0.5c0.2,0.2,0.3,0.5,0.4,0.8c0.4,1,1.6,1.6,2.6,1.2c0.2-0.1,0.5-0.2,0.7-0.2
			c0.4,0,0.7,0.5,0.9,0.9c0.6,0.9,1.7,1.4,2.7,1.9c0.3,0.1,0.5,0.3,0.8,0.2c0.3,0,0.6-0.3,0.5-0.6c-0.1-0.2-0.3-0.3-0.4-0.5
			c-0.2-0.4,0.3-0.8,0.7-0.8c0.4,0.1,0.7,0.5,0.7,1c0,0.4-0.2,0.8-0.5,1.2c0.7,0.3,1.4,0.7,1.8,1.4c0.1,0.3,0.2,0.5,0.4,0.8
			c0.7,0.9,2.4,0.8,2.8,1.8c0.2,0.4,0,0.9,0.1,1.3c0,0.6,0.3,1.3,0.6,1.8c0.1,0.2,0.2,0.5,0.5,0.6c0.4,0.2,0.9,0,1.2,0.2
			c0.4,0.2,0.4,0.8,0.2,1.2c-0.1,0.4-0.4,0.8-0.3,1.2c0,0.3,0.2,0.6,0.3,0.9c0.2,1-1.1,1.8-1.2,2.8c-0.1,0.7,0.5,1.3,1.1,1.6
			c0.6,0.3,1.3,0.2,2,0c0.2-0.1,0.4-0.1,0.6-0.1c0.7,0.2,0.3,1.3,0.6,2c0.2,0.4,0.6,0.6,1,0.8c0.7,0.6,0.6,1.8,0,2.3
			c-0.5,0.4-1.2,0.5-1.8,0.8c-0.6,0.3-1,1.2-0.4,1.6c-0.1,0.7,0.7,1,0.9,1.7c0.1,0.3,0,0.7,0.1,1c0.3,0.6,1.3,0.6,1.6,1.2
			c0.2,0.4,0,0.9,0.3,1.2c0.2,0.2,0.5,0.2,0.8,0.4c0.6,0.5,0.1,1.4,0.1,2.1c0,1.2,1.3,2,2.5,1.9c1.1-0.1,2.1-0.8,2.7-1.7
			c0.3-0.4,0.5-0.8,0.5-1.3c0-0.5-0.3-1-0.7-1.1c0.1-0.6,0.3-1.1,0.4-1.7c-1-0.6-1.6-1.9-1.4-3.1c0.1-0.4,0.2-0.9,0.1-1.3
			c0-0.2-0.1-0.3-0.2-0.4c-0.4-0.7-1-1.4-0.9-2.2c0.1-0.8,1-1.3,1.1-2.1c0-0.2,0-0.4,0.1-0.6c0.3-0.4,0.9-0.1,1.1,0.4
			c0.2,0.4,0.3,1,0.8,1.2c0.3,0.1,0.7-0.1,1,0.1c0.2,0.1,0.3,0.2,0.5,0.4c0.2,0.2,0.4,0.3,0.7,0.5c0.9,0.7,1.6,1.7,1.9,2.9
			c0,0.2,0.1,0.4,0.2,0.5c0.4,0.3,1-0.2,0.9-0.7c-0.1-0.5-0.5-0.8-0.8-1.3c-0.1-0.2-0.2-0.6,0-0.7c0.1-0.1,0.4-0.1,0.5,0
			c0.5,0.3,0.7,1,0.9,1.6c0.2,0.6,0.8,1.2,1.4,1c0.7-0.2,0.6-1.2,0.5-1.9c-0.2-1-0.5-1.9-0.9-2.8c-1-1.8-2.1-3.6-3.3-5.3
			c-1.2-1.5-2.5-2.9-3.4-4.5c-0.1-0.1-0.1-0.2-0.2-0.3c-1.3-1.5-2.6-3-4-4.5c-0.3-0.2-0.6-0.4-0.9-0.6c-1.8-1.3-3.3-3.1-4.8-4.7
			c-1.5-1.2-3-2.4-4.6-3.5c-1.1-0.5-2.2-1-3.2-1.8c-0.4-0.3-0.7-0.6-1-1c-5.9-3.6-12.4-6.4-19.3-8.2c-0.3,0.3-0.6,0.6-1,0.7
			C113.1,16.4,111.6,16.2,111.3,16.9z"/>
		<path class="st8" d="M138.1,39.7c-0.3-0.3-0.5-0.5-0.8-0.8c-0.6-0.6-1.3-1.3-2.2-1.1c-1-1-1.9-2-2.9-3c-0.1-0.2-0.3-0.3-0.5-0.4
			c-0.3-0.2-0.6-0.3-0.8-0.5c-0.3-0.2-0.4-0.6-0.2-0.8c-0.4,0.1-0.9-0.2-1-0.6c-0.8-0.2-1.8,0-2.4,0.6c0.2-0.1,0.3,0.2,0.2,0.4
			c-0.1,0.2-0.3,0.2-0.4,0.4c-0.3,0.4-0.1,1,0.4,1.2c0.5,0.2,1,0.1,1.5,0c-0.2,0.8,1.1,1.1,1.4,1.8c0.1,0.2,0.1,0.4,0.1,0.6
			c0,1.3,0.1,2.6,0.1,3.9c0.7-0.3,1.7-0.1,2.3,0.4c0.6,0.6,0.9,1.4,0.9,2.2c0.5,0.3,1-0.2,1.3-0.7s0.8-1.1,1.3-0.9
			c0.2,0.4,0.3,0.9,0.7,1.1c0.7,0.5,1.9,0,2.2-0.8c0.3-0.8,0-1.8-0.6-2.5C138.5,40.1,138.3,39.9,138.1,39.7z"/>
		<path class="st8" d="M164.5,60.5c-0.2-0.3-0.4-0.6-0.6-0.9c-0.9-0.3-2,0.7-1.8,1.7c0.1,0.5,0.5,0.9,0.5,1.4s-0.5,1.1-0.9,0.8
			c-0.5-0.7-1.2-1.3-2-1.6c-0.1,0-0.2-0.1-0.3-0.2c-0.1-0.1-0.2-0.3-0.2-0.5c-0.3-1.2-0.7-2.4-1.3-3.6c-0.3-0.5-0.7-1.1-1.3-1.1
			c0,0.6-0.2,1.2-0.7,1.6c-0.3,0.2-0.6,0.4-0.8,0.5c-0.8,0.6-1.3,1.5-1.2,2.5c0,0.3,0.1,0.6,0.1,1c0,0.9-1,1.7-1.9,1.4
			c0.2,0.6-0.7,0.8-1.1,1.3c-0.3,0.5,0,1.2-0.3,1.8c-0.1,0.2-0.4,0.4-0.4,0.6c-0.1,0.3,0.2,0.6,0.4,0.9c0.4,0.9-0.7,1.8-0.4,2.8
			c0.1,0.3,0.3,0.6,0.4,0.9c0.1,0.5-0.1,1,0,1.4c0.1,0.3,0.3,0.5,0.4,0.8c0.1,0.3,0.1,0.7-0.1,0.8c0.5,0.5,1,1.2,0.6,1.7
			c-0.2,0.3-0.7,0.4-0.8,0.7c-0.1,0.2,0,0.4,0,0.6c-0.1,0.3-0.3,0.6-0.5,0.8c-0.6,0.9,0,2.2-0.1,3.3c-0.1,1.4-1.2,2.7-0.9,4
			c0.7,0.2,0.7,1.2,0.6,2c-0.1,0.9-0.2,1.9,0.2,2.7c0.3,0.5,0.8,1.1,0.6,1.7c-0.1,0.3-0.4,0.6-0.4,1c0,0.3,0.2,0.5,0.3,0.7
			c0.2,0.5-0.1,1.1-0.3,1.6c-0.2,0.5-0.3,1.2,0.2,1.5c1,0.7,0.1,2.7-0.5,3.8c-0.2,0.3-0.3,0.5-0.3,0.8c0,0.4,0.3,0.6,0.6,0.8
			c0.6,0.4,1.2,0.9,1.3,1.5c0.1,0.6-0.2,1.3,0.2,1.7c0.3,0.3,0.9,0.2,1.2,0.6c0.2,0.2,0.1,0.5,0.2,0.8c0.1,0.7,0.4,1.3,0.8,1.9
			c0.4,0.6,0.9,1.2,1.5,1.8c0.4,0.4,0.8,0.8,1.3,0.9c1,0.1,1.6-1,2-2c0.2-0.5,0.4-1,0.6-1.5c0.1-0.2,0.2-0.4,0.3-0.6
			c0.2-0.1,0.4-0.2,0.5-0.3c0.5-0.2,0.7-0.6,1.1-1c0.4-0.3,0.9-0.6,1.3-0.4c0.6,0.3,0.5,1.3,0.3,1.9c-0.5,1.4-1,2.9-1.4,4.3
			c-0.4,0.2-0.5,0.7-0.3,1.1c0.1,0.4,0.3,0.8,0.2,1.2c-0.1,0.2-0.2,0.4-0.3,0.5c-0.1,0.2-0.2,0.5-0.3,0.7c-0.2,0.6-0.5,1.1-0.7,1.7
			c-0.2,0.4-0.4,0.9-0.6,1.3c-0.4,0.9-0.8,1.8-1.3,2.7c-0.7,1.2-1.4,2.4-2.3,3.5c-0.4,0.5-0.9,1-1.2,1.6c-0.8,1.1-1.4,2.4-1.8,3.7
			c10.1-12.4,16.2-28.2,16.2-45.4C168.8,76.4,167.2,68.2,164.5,60.5z"/>
		<path class="st8" d="M67.7,96.6c0.2,0.3-0.1,0.9,0.2,1.1c0.1,0.1,0.2,0.1,0.3,0.1c0.3,0,0.7,0,1,0c0.2-0.1,0.2-0.4,0.2-0.6
			c0-0.1-0.1-0.2-0.2-0.3c-0.2-0.2-0.3-0.5-0.5-0.7c-0.2-0.2-0.4-0.4-0.7-0.4c-0.3,0-0.5,0.3-0.4,0.5C67.6,96.5,67.7,96.5,67.7,96.6
			z"/>
		<path class="st8" d="M69,99.9c-0.1-0.1-0.1-0.1-0.1-0.2c-0.1-0.2-0.4-0.3-0.6-0.3c-0.2,0.1-0.4,0.3-0.4,0.5
			c-0.1,0.1,0,0.2,0.1,0.3c0.1,0.1,0.2,0.1,0.3,0.1c0.3,0.2,0.2,0.6,0.4,0.9c0.2,0.3,0.7,0.2,0.9-0.1c0.2-0.3,0-0.7-0.2-1
			C69.2,100,69.1,99.9,69,99.9z"/>
		<path class="st8" d="M78.5,106.4c-0.3-0.1-0.7,0-1-0.1c-0.4-0.1-0.8-0.5-1.2-0.5c-0.6-0.1-1.1,0.5-1.7,0.5c-0.8,0-1.3-0.9-2-1
			c-0.2,0-0.5,0-0.6-0.1c-0.2-0.1-0.3-0.4-0.4-0.6c-0.5-0.5-1.5,0.1-2.1-0.3c-0.3-0.2-0.5-0.6-0.7-0.9c-0.6-1-1.8-1.6-2.9-1.7
			c-1.2-0.1-2.4,0.2-3.4,0.7c-0.3,0.2-0.7,0.3-0.9,0.7c-0.2,0.3-0.2,0.8,0.1,1c0.4,0.3,0.9,0,1.4-0.2c1.1-0.4,2.2,0.1,3.3,0.5
			c0.5,0.2,0.9,0.4,1.4,0.6c0.6,0.3,1.3,0.8,1.1,1.4c0.4-0.1,0.8,0,1,0.3c0.1,0.2,0.2,0.4,0.3,0.5c0.5,0.4,1.1,0,1.7-0.3
			c0.9-0.5,2.1-0.4,3,0.2c0.2,0.1,0.3,0.3,0.4,0.5c0.1,0.6-1.3,0.9-1,1.5c0.7-0.3,1.4,0,2.1,0.3c0.7,0.3,1.5,0.5,2.1,0.1
			c0.2-0.1,0.3-0.3,0.5-0.5c0.4-0.3,0.9-0.3,1.4-0.5s0.8-0.8,0.5-1.1C80,107.7,79.3,106.6,78.5,106.4z"/>
		<path class="st8" d="M71.5,109c-0.5-0.1-1.1-0.1-1.6-0.2c0,0.3-0.4,0.3-0.5,0.5c-0.1,0.2-0.1,0.4,0,0.6c0.3,0.7,1.3,0.8,2,0.6
			c0.4-0.4,0.5-1,0.3-1.4C71.6,109.2,71.5,109.1,71.5,109z"/>
		<path class="st8" d="M83.8,108.4c-0.4-0.2-0.9-0.4-1.3-0.4c-0.2,0.3,0,0.8,0.4,0.9c0.1,0,0.2,0.1,0.2,0.1c0.2,0.1,0.5,0.1,0.7,0
			c0.2-0.1,0.4-0.3,0.3-0.5C83.9,108.5,83.9,108.4,83.8,108.4z"/>
		<path class="st8" d="M87.3,107.8c-0.2,0-0.5,0-0.6,0.2c-0.1,0.3,0.3,0.7,0.2,1c0.5,0,1-0.3,1.2-0.8
			C87.8,108.3,87.5,108.1,87.3,107.8z"/>
		<path class="st8" d="M89.3,110.1c-0.1,0.1-0.3,0.1-0.4,0.2c-0.2,0.3,0.1,0.6,0.5,0.7c0.2,0.1,0.3-0.2,0.2-0.4
			C89.4,110.5,89.2,110.3,89.3,110.1z"/>
		<path class="st8" d="M90,112.4c0,0.3,0,0.5,0,0.8c0.3,0,0.6-0.1,0.9-0.3C90.5,112.9,90.2,112.7,90,112.4z"/>
		<path class="st8" d="M89.9,114.4c-0.1,0.1,0.1,0.4,0.2,0.3c0,0.2,0,0.3,0,0.5c0.1,0.1,0.2,0.1,0.3,0.1c0.2-0.3,0.2-0.7,0.1-1.1
			C90.3,114.2,90.1,114.3,89.9,114.4z"/>
		<path class="st8" d="M91.9,115.6c0,0.3,0.3,0.6,0.6,0.5c0-0.4,0-0.7,0-1.1C92.2,115.1,91.9,115.3,91.9,115.6z"/>
	</g>
	<g class="st9">
		<path class="st7" d="M65.3,132.5c-0.7-0.7-1.6-1.1-2.4-1.7c-1.6-1.1-3.1-2.4-4.4-3.8c-0.9-1-1.8-2-2.7-3c-1.1-1.3-2.3-2.5-3.9-3
			c-2.3-0.7-4.7,0.8-4.3,3.3c0.3,1.9,2.5,3.9,3.7,5.2c4,4.4,8.8,8.3,13.6,11.7c0.8,0.5,1.7,1.1,2.6,0.7c1.2-0.5,1.1-2.3,0.7-3.5
			C67.6,136.2,67,134,65.3,132.5z"/>
		<path class="st7" d="M146.9,117.2c-0.2-1.5-0.7-3-1.4-4.4c-1.5-2.7-3.9-4.8-4.1-8.1c-0.1-1.8,0.2-3.6,0.4-5.4
			c0.4-3.7,0-7.5-1-11.1c-0.8-2.7-1.9-5.6-1.2-8.4c0.7-2.6,3.1-4.6,3.1-7.3c0-2.9-2.4-4.9-4-7c-1.6-2.2-2.7-5.2-3.5-7.8
			c-0.6-1.7-1.5-3.6-3.2-4.2c-2.2-0.8-5.1,0.5-6.7-1.2c-1.1-1.2-0.6-3.1-0.3-4.7c0.3-1.5,0.4-3,0.3-4.6c0-0.7-0.1-1.3-0.5-1.9
			c-1.2-1.7-3.7-0.9-5.7-0.4c-2.7,0.6-5.7,0.2-8.1-1.3c-1.9-1.1-4-2.9-6-2c-1.6,0.7-2.1,2.8-2.4,4.5c-0.3,1.8-0.9,3.8-2.7,4.3
			c-0.6,0.2-1.4,0.1-2,0.4c-0.9,0.4-1.3,1.5-1.3,2.4c0,1,0.4,1.9,0.7,2.8c1.3,3.9,2.8,11,0.5,14.7c-2.2,3.4-6.5,4.5-10.2,6.2
			c-4.3,2-8,5.1-10.6,9c-1.6,2.4-2.9,5.3-2.4,8.1c0.4,2,1.6,3.8,2.9,5.4c0.9,1.1,2.2,2.2,3.5,1.8c1.6-0.6,1.6-3.2,3.1-4.1
			c1.4-0.9,3.3,0.2,4.3,1.5c1,1.3,1.9,3,3.4,3.6c1.7,0.7,3.6-0.1,5.4-0.7c1.8-0.6,4-0.7,5.1,0.8c1,1.4,0.3,3.4,0.5,5.1
			c0.7,4.8,8.3,2.9,7.6,8.5c-0.2,1.4-1,2.7-1.1,4.1c0,2.4,2.5,4.1,4.8,4.6c2.4,0.5,4.9,0.2,7.2,0.8c3.9,1.1,6.5,4.7,8.3,8.3
			c0.6,1.3,1.2,2.7,2.3,3.6c1.4,1.1,3.4,1.2,5,0.7c1.7-0.5,3.1-1.7,4.3-2.9c2.4-2.4,4.2-5.3,5-8.6
			C147.1,120.9,147.2,119,146.9,117.2z"/>
	</g>
	<path class="st10" d="M139.2,27.2c0.3,0.2,0.6,0.5,0.9,0.7C139.8,27.7,139.5,27.4,139.2,27.2z"/>
	<path class="st11" d="M129.7,21.3c13.3,13.1,21.6,31.3,21.6,51.4c0,39.7-32.2,72-72,72c-11.8,0-23-2.9-32.9-7.9
		c13,12.7,30.8,20.6,50.4,20.6c39.7,0,72-32.2,72-72C168.8,57.4,152.9,33.2,129.7,21.3z"/>
	<g class="st9">
		<g>
			<path class="st12" d="M109.7,135c-2.5,0.3-5.2-0.6-7-2.3c-1.9-1.8-3.1-4.6-5.7-5.2c-1-0.2-2.1,0-3.1-0.3c-1.9-0.6-3-2.6-4.7-3.6
				c-1.6-0.9-3.6-0.7-5.5-0.5c-2.2,0.2-3.3,1-4,3.1c-0.1,0.5-0.2,1.1-0.1,1.6c0.1,0.4,0.4,0.8,0.5,1.1c0.7,1.3,0.6,2.9,0.3,4.3
				c-0.1,0.7-0.3,1.3-0.2,2c0.1,1.3,1.3,2.2,2.4,2.7c3.4,1.5,7.2,2.1,10.1,4.4c0.9,0.8,1.7,1.7,2.4,2.6c1.2,1.6,2.4,3.3,3.4,5.1
				c0.6,1.1,1.4,2.4,2.6,2.6c1,0.2,2.1-0.5,2.7-1.3c0.6-0.8,1-1.8,1.6-2.8c1.4-2.3,3.7-3.7,5.8-5.3c2.1-1.6,4.2-3.5,4.8-6.1
				c0.1-0.4,0.1-0.8,0-1.2c-0.2-0.9-1.1-1.3-2-1.5C112.7,134.2,111.2,134.8,109.7,135z"/>
			<path class="st12" d="M163,67.6c-2,0.8-3.7-2.8-5.8-2.3c-1.4,0.3-1.8,2-1.9,3.4c-0.2,3.3,0,6.7-0.6,10c-0.3,1.6-0.8,3.2-0.9,4.8
				c-0.2,2.5,0.6,5,1,7.5c0.4,2.5,0.5,5,0.1,7.4c-0.2,1.4,0.1,4.4,1.9,4.6c1.7,0.2,3.5-1.9,5.2-2.2c0.6-0.1,1.3,0,1.8-0.3
				c0.6-0.3,0.8-1,1-1.6c0.7-2.6,0.7-5.3,0.7-8c0-2.9,0-5.9,0.1-8.8c0-4.7,0.1-9.5-1.2-14.1c-0.1-0.2-0.1-0.4-0.3-0.5
				C163.7,67.2,163.3,67.4,163,67.6z"/>
			<path class="st12" d="M143.3,42.5c0,0.1,0.1,0.2,0.1,0.3c0.4,1,1.6,2.2,2.6,2.7c1.1,0.6,2.5,0.1,3.6-0.2c0.4-0.1,3.3-0.4,3.4-0.6
				c0.5-0.6,0.3-1.6-0.1-2.2c-0.5-0.6-1.2-1-1.9-1.5c-5.2-3.4-8.1-9.6-13.2-13.1c-0.6-0.4-1.3-0.8-2-1.2c-4.1-2.5-8.4-5-13.2-5.6
				c0.4,0.9,1.4,1.4,2.3,1.8c1.6,0.7,3.2,1.4,4.8,2.2c1.1,0.5,2.3,1,3.3,1.8c2.2,1.5,3.6,3.8,5.1,6c0.9,1.3,1.8,2.7,3,3.7
				c0.5,0.4,1,0.8,1.3,1.3C143.5,39.2,142.9,41,143.3,42.5z"/>
		</g>
		<path class="st12" d="M94.1,25.5c-0.1-0.2-0.3-0.4-0.5-0.6c-0.2-0.1-0.4-0.3-0.6-0.4c-0.1-0.1-0.3-0.1-0.4-0.2
			c-0.2-0.2-0.3-0.4-0.5-0.6c-0.6-1-1.2-2.1-2.2-2.8c-1-0.6-2.5-0.7-3.2,0.2c-0.5,0.6-0.6,1.4-0.5,2.2c0.2,0.8,0.5,1.5,0.9,2.1
			c0.1,0.2,0.2,0.4,0.3,0.6c0.4,0.7,0.8,1.5,1,2.3c0.1,0.6,0.1,1.2,0.2,1.8c0.1,0.8,0.3,1.5,0.5,2.3c0.1,0.3,0.2,0.6,0.4,0.8
			c0.2,0.2,0.5,0.3,0.8,0.2c0.6-1.8,1.6-3.6,2.8-5.1c0.3-0.4,0.7-0.8,0.9-1.3C94.2,26.6,94.3,26,94.1,25.5z"/>
		<path class="st12" d="M64.3,32.7c0,0.3,0.2,0.7,0.5,0.9c0.1,0.1,0.3,0.1,0.4,0.2c1-0.1,1.9-0.7,2.6-1.5c0.7-0.7,1.3-1.6,2.1-2.2
			c1.3-1.1,3.1-1.6,4.7-2c0.5-0.3,0.3-1-0.2-1.3c-0.5-0.3-1-0.2-1.6-0.3c-0.6-0.1-1.1-0.5-1.7-0.6c-0.7-0.2-1.5,0.1-2.1,0.5
			c-0.6,0.4-1.1,1-1.6,1.6c-0.6,0.7-1.2,1.4-1.8,2.1C64.9,30.8,64.2,31.7,64.3,32.7z"/>
		<path class="st12" d="M57.5,51.4c-0.5-1-1-2-1.2-3.2c-0.4-2.1,0.4-4.2,1.5-6c1.1-1.8,2.4-3.4,3.4-5.3c0.3-0.7,0.6-1.4,0.7-2.1
			c0.1-1.5-0.9-2.8-1.8-3.9c-0.7-0.9-1.8-1.9-2.9-1.5c-0.4,0.2-0.8,0.6-1.1,0.9c-2,2-5.1,2.8-6.8,5.1c-2.2,2.8-1.6,6.8-2.6,10.2
			c-1,3.4-3.5,6.2-4.7,9.5c-0.9,2.8-0.8,5.9-1.5,8.8c-1,4.1-3.5,7.9-3.2,12.1c0.2,3.2,2.1,6,3.2,8.9c1.3,3.4,1.7,7,2,10.6
			c0.1,1,0.8,2.5,1.7,2c0.2-0.1,0.4-0.3,0.5-0.5c1.8-3,0.7-7.4,3.4-9.7c3.2-2.7,8.4,0.7,12.1-1.1c1.7-0.8,2.8-2.6,3.8-4.3
			c1.5-2.6,2.9-5.2,4.4-7.8c0.8-1.5,1.7-3,2-4.6c0.7-3.3-0.4-7,1.2-10c1.3-2.4,4.1-3.6,5.6-5.9c0.7-1.2,1-2.9,0.1-3.9
			c-0.8-0.9-2.1-1-3.2-0.5c-1.1,0.4-1.9,1.3-2.6,2.2c-1.1,1.4-2.2,2.8-3,4.4c-0.7,1.2-1.3,2.5-2.4,3.4c-1.1,0.9-2.8,1.3-3.9,0.4
			c-0.5-0.4-0.8-1-1.1-1.6C59.7,55.7,58.6,53.5,57.5,51.4z"/>
	</g>
	
		<ellipse transform="matrix(0.9729 -0.2313 0.2313 0.9729 -11.5344 22.9638)" class="st13" cx="92.2" cy="60.7" rx="47.1" ry="41.7"/>
	
		<ellipse transform="matrix(0.9729 -0.2313 0.2313 0.9729 -8.1836 19.3369)" class="st13" cx="78.4" cy="44.6" rx="23.9" ry="17.5"/>
	<g>
		<g>
			<ellipse transform="matrix(0.5738 -0.819 0.819 0.5738 -26.0932 87.3298)" class="st14" cx="70.9" cy="68.7" rx="8.1" ry="8.1"/>
			<path class="st12" d="M71.4,66.2c-0.3,1.4-1.7,2.3-3.1,2c-1.4-0.3-2.3-1.7-2-3.1c0.3-1.4,1.7-2.3,3.1-2
				C70.8,63.5,71.7,64.8,71.4,66.2z"/>
			
				<ellipse transform="matrix(0.3681 -0.9298 0.9298 0.3681 4.0017 166.9533)" class="st14" cx="124.8" cy="80.5" rx="8.1" ry="8.1"/>
			<path class="st12" d="M125.4,78c-0.3,1.4-1.7,2.3-3.1,2c-1.4-0.3-2.3-1.7-2-3.1c0.3-1.4,1.7-2.3,3.1-2
				C124.8,75.3,125.7,76.6,125.4,78z"/>
		</g>
		<path class="st14" d="M103.2,85.9l-0.2,0c-0.7-0.2-1.5,0.1-1.9,0.7c-1.5,2.2-4,3.2-6.5,2.7c-2.4-0.5-4.3-2.6-4.8-5.1l0,0
			c-0.1-0.7-0.7-1.2-1.4-1.4l-0.2,0c-1.2-0.3-2.3,0.6-2.1,1.7l0,0c0.7,4.1,3.7,7.3,7.8,8.2s8.2-0.8,10.5-4.2l0,0
			C105,87.5,104.4,86.2,103.2,85.9z"/>
	</g>
	<g>
		<path class="st12" d="M187,94.9c0,0,0,0.2,0.1,0.6c0.1,0.4,0.1,1,0.1,1.7c0,1.5-0.6,3.8-2.1,6.2c-0.7,1.2-1.7,2.5-2.9,3.7
			c-1.2,1.3-2.5,2.5-4,3.7c-3,2.5-6.7,4.8-10.9,7.1c-2.1,1.1-4.3,2.2-6.6,3.2c-2.3,1-4.8,2-7.3,2.9c-5.1,1.8-10.6,3.2-16.3,4.5
			c-5.7,1.2-11.6,2.5-17.6,3.8c-6,1.3-12.1,2.6-18.2,3.9c-3.1,0.6-6.1,1.2-9.2,1.7c-1.5,0.2-3.1,0.5-4.6,0.7
			c-1.5,0.2-3.1,0.4-4.6,0.6c-1.5,0.2-3.1,0.3-4.6,0.5c-1.5,0.1-3,0.3-4.5,0.4c-1.5,0.1-3,0.2-4.5,0.3c-1.5,0.1-3,0.1-4.4,0.2
			c-1.5,0.1-2.9,0.1-4.4,0.1c-1.4,0-2.9,0-4.3,0c-1.4,0-2.8-0.1-4.2-0.1c-1.4-0.1-2.7-0.2-4.1-0.3c-5.4-0.4-10.5-1.1-15.1-2
			c-4.6-1-8.8-2.2-12.5-3.7c-3.6-1.5-6.6-3.2-8.8-5.1c-1.1-0.9-1.9-1.9-2.6-2.8c-0.6-0.9-1-1.8-1.3-2.5c-0.2-0.7-0.3-1.3-0.4-1.7
			c0-0.4-0.1-0.6-0.1-0.6l0.5-0.1c0,0,0.1,0.2,0.2,0.5c0.1,0.3,0.3,0.9,0.6,1.5c0.7,1.2,2,2.8,4.2,4.2c1.1,0.7,2.4,1.4,3.8,2
			c0.4,0.1,0.7,0.3,1.1,0.4c0.2,0.1,0.4,0.2,0.6,0.2c0.1,0,0.2,0.1,0.3,0.1l0.3,0.1c0.8,0.3,1.7,0.5,2.5,0.8c3.5,1,7.6,1.8,12.1,2.4
			c1.1,0.1,2.3,0.3,3.5,0.4c1.2,0.1,2.4,0.2,3.6,0.3c1.2,0.1,2.5,0.2,3.8,0.3c1.3,0.1,2.6,0.2,3.9,0.2c5.2,0.3,10.8,0.3,16.6,0.3
			c5.8,0,11.7-0.3,17.8-0.6c3-0.2,6.1-0.4,9.1-0.6c3-0.2,6.2-0.5,9.2-0.8c6.2-0.6,12.3-1.5,18.2-2.7c6-1.2,11.7-2.9,17.2-4.8
			c5.5-1.9,10.7-4,15.5-5.9c4.9-2,9.5-3.8,13.6-5.8c4.1-2,7.8-4,10.8-6c1.5-1,2.9-2,4.1-3.1c1.2-1,2.2-2,3.1-3
			c1.7-2,2.5-3.9,2.8-5.2c0.1-0.7,0.2-1.2,0.2-1.6c0-0.4,0-0.6,0-0.6L187,94.9z"/>
		<g>
			<path class="st12" d="M102.4,143.6c0,0-0.3,0.1-0.9,0.3c-0.6,0.2-1.5,0.4-2.6,0.7c-1.1,0.3-2.5,0.6-4.1,1
				c-0.8,0.2-1.6,0.3-2.5,0.5c-0.9,0.2-1.8,0.3-2.8,0.5c-3.9,0.7-8.5,1.4-13.4,1.8c-2.5,0.2-5,0.4-7.6,0.5c-2.6,0.1-5.3,0.2-7.9,0.2
				c-2.7,0-5.3-0.1-7.9-0.3c-1.3-0.1-2.6-0.2-3.9-0.3c-1.3-0.1-2.6-0.2-3.8-0.4c-5-0.6-9.5-1.5-13.4-2.6c-1.9-0.5-3.7-1.1-5.2-1.7
				c-1.5-0.6-2.8-1.1-3.9-1.6c-1.1-0.5-1.9-0.9-2.4-1.2c-0.5-0.3-0.8-0.5-0.8-0.5s0.3,0.1,0.9,0.2c0.6,0.2,1.5,0.4,2.6,0.6
				c2.2,0.5,5.4,1.1,9.3,1.5c1.9,0.2,4,0.4,6.2,0.6c2.2,0.2,4.6,0.3,7,0.5c1.2,0.1,2.4,0.1,3.7,0.2c1.3,0,2.5,0.1,3.8,0.1
				c2.6,0.1,5.1,0.1,7.7,0.1c2.6,0,5.2,0,7.8,0c1.3,0,2.6,0,3.8-0.1c1.3,0,2.5-0.1,3.7-0.1c4.9-0.1,9.5-0.3,13.4-0.4
				c3.9-0.1,7.2-0.2,9.5-0.3c1.2,0,2.1,0,2.7-0.1C102.1,143.6,102.4,143.6,102.4,143.6z"/>
			<path class="st12" d="M188,103.6c0,0,0.2,0.4,0.4,1.1c0.1,0.4,0.2,0.8,0.2,1.4c0,0.5,0,1.1-0.1,1.8c-0.1,0.7-0.3,1.3-0.5,2
				c-0.3,0.7-0.6,1.4-1,2.1c-0.1,0.2-0.2,0.4-0.3,0.5c-0.1,0.2-0.2,0.3-0.4,0.5c-0.2,0.3-0.5,0.7-0.7,1c-0.3,0.3-0.5,0.6-0.8,1
				c-0.3,0.3-0.6,0.6-0.9,0.9c-0.6,0.6-1.2,1.1-1.9,1.6c-0.3,0.3-0.6,0.5-1,0.7c-0.3,0.2-0.6,0.5-1,0.7c-0.7,0.4-1.3,0.8-1.9,1.1
				c-0.6,0.3-1.2,0.7-1.8,0.9c-0.6,0.3-1.1,0.5-1.5,0.7c-0.5,0.2-0.9,0.3-1.2,0.4c-0.7,0.2-1.1,0.3-1.1,0.3s0.3-0.3,0.8-0.8
				c0.5-0.5,1.3-1.2,2.2-2c0.9-0.8,1.9-1.7,3-2.7c0.6-0.5,1.1-1,1.7-1.5c0.5-0.5,1.1-1,1.7-1.6c0.6-0.5,1.1-1.1,1.6-1.6
				c0.5-0.6,1-1.1,1.4-1.6c0.5-0.5,0.8-1.1,1.2-1.6c0.3-0.5,0.7-1.1,0.9-1.6c0.3-0.5,0.4-1,0.6-1.4c0.1-0.4,0.3-0.8,0.3-1.2
				C187.9,104,188,103.6,188,103.6z"/>
		</g>
	</g>
	<g>
		<path class="st15" d="M143.5,96.9c1,2.9-2.9,6.8-8.6,8.7c-5.7,1.9-11.1,1.1-12-1.8c-1-2.9,2.9-6.8,8.6-8.7
			C137.1,93.2,142.5,94,143.5,96.9z"/>
		
			<ellipse transform="matrix(0.6055 -0.7958 0.7958 0.6055 -47.7964 78.986)" class="st15" cx="55.8" cy="87.7" rx="5.5" ry="10.9"/>
	</g>
</g>
</svg>
